<svg width="342" height="332" viewBox="0 0 342 332" fill="none" xmlns="http://www.w3.org/2000/svg">
<g clip-path="url(#clip0_147_1149)">
<rect width="342" height="332" fill="url(#paint0_radial_147_1149)"/>
<g opacity="0.1">
<path fill-rule="evenodd" clip-rule="evenodd" d="M-279.149 313.148L-91.6497 216.034C-65.8376 202.669 -37.536 195.98 -9.21467 196C17.7002 195.98 44.6349 202.022 69.4631 214.152L215.355 285.421C239.187 297.063 250.326 318.636 250.326 343.424L251.429 491.271C251.508 504.94 245.942 519.573 232.24 527.332L33.416 639.897C-22.091 671.322 -90.2564 670.794 -145.268 638.511L-301.363 546.91C-314.807 539.026 -319.7 524.928 -318.921 510.929C-316.874 474.255 -312.522 400.886 -311.116 364.211C-310.336 343.959 -299.93 323.918 -279.149 313.155V313.148Z" fill="#5245E9"/>
<path d="M-74.0245 252.908L-241.146 338.488C-263.47 349.92 -264.068 381.129 -242.196 393.38L-121.708 460.873C-79.9454 484.269 -28.8088 484.55 13.212 461.611L181.676 369.662C204.117 357.412 203.302 325.395 180.263 314.268L50.2264 251.462C10.9316 232.486 -35.1928 233.019 -74.0187 252.902L-74.0245 252.908Z" fill="#1D1D1E"/>
</g>
<g opacity="0.1">
<path fill-rule="evenodd" clip-rule="evenodd" d="M149.576 -41.4166L316.965 -128.115C340.009 -140.046 365.275 -146.018 390.558 -146C414.587 -146.018 438.632 -140.624 460.797 -129.795L591.042 -66.1698C612.317 -55.7769 622.262 -36.5179 622.262 -14.388L623.246 117.601C623.317 129.804 618.347 142.867 606.115 149.794L428.617 250.286C379.063 278.34 318.209 277.869 269.098 249.048L129.746 167.273C117.743 160.234 113.375 147.648 114.071 135.151C115.898 102.41 119.783 36.9103 121.039 4.16946C121.734 -13.9105 131.025 -31.8019 149.576 -41.4107V-41.4166Z" fill="url(#paint1_linear_147_1149)"/>
<path d="M332.7 -95.1958L183.503 -18.7948C163.574 -8.58957 163.04 19.2724 182.567 30.2092L290.131 90.4636C327.414 111.35 373.066 111.6 410.58 91.122L560.975 9.03579C581.009 -1.90103 580.282 -30.4841 559.714 -40.4176L443.624 -96.4864C408.544 -113.427 367.367 -112.952 332.705 -95.201L332.7 -95.1958Z" fill="#1D1D1E"/>
</g>
</g>
<defs>
<radialGradient id="paint0_radial_147_1149" cx="0" cy="0" r="1" gradientUnits="userSpaceOnUse" gradientTransform="translate(90.7823 665.145) rotate(-75.1166) scale(978.059 494.524)">
<stop offset="0.27" stop-color="#453AFF" stop-opacity="0"/>
<stop offset="0.735" stop-color="#453AFF" stop-opacity="0.398619"/>
<stop offset="1" stop-color="#453AFF"/>
</radialGradient>
<linearGradient id="paint1_linear_147_1149" x1="368.623" y1="-146" x2="368.623" y2="271" gradientUnits="userSpaceOnUse">
<stop stop-color="#5245E9"/>
<stop offset="1" stop-color="#1C1851"/>
</linearGradient>
<clipPath id="clip0_147_1149">
<rect width="342" height="332" fill="white"/>
</clipPath>
</defs>
</svg>

