<svg width="1030" height="489" viewBox="0 0 1030 489" fill="none" xmlns="http://www.w3.org/2000/svg">
<g clip-path="url(#clip0_135_2789)">
<path d="M266.964 -96.2696L530.583 55.741L627.96 -0.0765839L364.341 -152.087L266.964 -96.2696Z" fill="#151515" fill-opacity="0.2"/>
<path d="M530.583 27.9126V-11.2108L627.96 -67.0283V-27.9048L530.583 27.9126Z" fill="#B382F2" stroke="#151515" stroke-width="2" stroke-linecap="round" stroke-linejoin="round"/>
<path d="M266.964 -163.221L530.583 -11.2101V27.9132L266.964 -124.097V-163.221Z" fill="#151515" stroke="#151515" stroke-width="2" stroke-linecap="round" stroke-linejoin="round"/>
<path d="M0 57.5962L262.977 209.237L424.301 116.764L161.324 -34.8767L0 57.5962Z" fill="#151515" fill-opacity="0.2"/>
<path d="M0 -9.35574L262.977 142.285L424.301 49.812L161.324 -101.829L0 -9.35574Z" fill="#3BBB96" stroke="#151515" stroke-width="2" stroke-linecap="round" stroke-linejoin="round"/>
<path d="M262.977 181.312V142.284L424.301 49.8115L424.301 88.8395L262.977 181.312Z" fill="#75DCC0" stroke="#151515" stroke-width="2" stroke-linecap="round" stroke-linejoin="round"/>
<path d="M0 -9.35547L262.977 142.285V181.313L0 29.6727V-9.35547Z" fill="#151515" stroke="#151515" stroke-width="2" stroke-linecap="round" stroke-linejoin="round"/>
<path d="M268.694 -13.0137L365.664 42.4949L250.313 109.105L153.343 53.5966L268.694 -13.0137Z" fill="#75DCC0" stroke="#151515" stroke-width="2" stroke-linejoin="round"/>
<path d="M268.694 -18.5647L365.664 36.9439L250.313 103.554L153.343 48.0456L268.694 -18.5647Z" fill="#75DCC0" stroke="#151515" stroke-width="2" stroke-linejoin="round"/>
<path d="M250.313 103.554L365.663 36.9441V42.495L250.313 109.105V103.554Z" fill="#75DCC0" stroke="#151515" stroke-width="2" stroke-linejoin="round"/>
<path d="M153.343 48.0461L250.313 103.555V109.106L153.343 53.597V48.0461Z" fill="#151515" stroke="#151515" stroke-width="2" stroke-linejoin="round"/>
<path d="M74.454 -28.2773L154.457 15.4357L129.963 28.619L49.96 -15.0941L74.454 -28.2773Z" fill="#151515" stroke="#151515" stroke-width="2" stroke-linejoin="round"/>
<path d="M74.454 -33.8284L154.457 9.88465L129.963 23.0679L49.96 -20.6451L74.454 -33.8284Z" fill="#75DCC0" stroke="#151515" stroke-width="2" stroke-linejoin="round"/>
<path d="M129.962 23.0676L154.456 9.88428V15.4351L129.962 28.6184V23.0676Z" fill="#75DCC0" stroke="#151515" stroke-width="2" stroke-linejoin="round"/>
<path d="M49.96 -20.645L129.963 23.068V28.6189L49.96 -15.0942V-20.645Z" fill="#151515" stroke="#151515" stroke-width="2" stroke-linejoin="round"/>
<path d="M106.201 -40.37C109.333 -42.1778 114.411 -42.1751 117.536 -40.364L175.733 -6.63943C178.646 -4.95171 178.83 -2.2566 176.157 -0.441482C173.157 1.59638 167.782 1.72184 164.506 -0.16951L106.201 -33.8319C103.074 -35.6374 103.074 -38.5646 106.201 -40.37Z" fill="#151515" stroke="#151515" stroke-width="2" stroke-linejoin="round"/>
<path d="M106.201 -39.3831L164.506 -5.7207V-0.169846L106.201 -33.8323C104.706 -34.6953 103.926 -35.8147 103.86 -36.9453L103.856 -42.6296C103.866 -41.454 104.648 -40.2801 106.201 -39.3831Z" fill="#151515" stroke="#151515" stroke-width="2" stroke-linejoin="round"/>
<path d="M164.506 -5.72031C167.782 -3.82896 173.156 -3.95441 176.157 -5.99228C177.377 -6.82113 178.002 -7.83348 178.043 -8.84961V-3.29875C178.002 -2.28262 177.377 -1.27027 176.157 -0.441418C173.156 1.59645 167.782 1.7219 164.506 -0.169448V-5.72031Z" fill="#75DCC0" stroke="#151515" stroke-width="2" stroke-linejoin="round"/>
<path d="M713.311 72.226L976.929 224.237L1074.31 168.419L810.688 16.4084L713.311 72.226Z" fill="#151515" fill-opacity="0.2"/>
<path d="M713.311 5.2741L976.929 157.285L1074.31 101.467L810.688 -50.5435L713.311 5.2741Z" fill="#59B5F8" stroke="#151515" stroke-width="2" stroke-linecap="round" stroke-linejoin="round"/>
<path d="M976.93 196.408V157.285L1074.31 101.467V140.591L976.93 196.408Z" fill="#87D9FD" stroke="#151515" stroke-width="2" stroke-linecap="round" stroke-linejoin="round"/>
<path d="M713.311 5.2749L976.929 157.285V196.409L713.311 44.3983V5.2749Z" fill="#151515" stroke="#151515" stroke-width="2" stroke-linecap="round" stroke-linejoin="round"/>
<path d="M966.49 130.806L906.673 96.1803L966.49 61.2507L1026.31 95.8761L966.49 130.806Z" fill="#87D9FD" stroke="#151515" stroke-width="2" stroke-linejoin="round"/>
<path d="M966.49 125.242L906.673 90.6164L966.49 55.6868L1026.31 90.3122L966.49 125.242Z" fill="#87D9FD" stroke="#151515" stroke-width="2" stroke-linejoin="round"/>
<path d="M966.49 125.242L1026.31 90.3123V95.8767L966.49 130.806V125.242Z" fill="#87D9FD" stroke="#151515" stroke-width="2" stroke-linejoin="round"/>
<path d="M966.49 125.242L906.673 90.6165V96.1809L966.49 130.806V125.242Z" fill="#151515" stroke="#151515" stroke-width="2" stroke-linejoin="round"/>
<path d="M816.252 41.7747L756.435 7.14934L816.252 -27.7803L876.069 6.84512L816.252 41.7747Z" fill="#87D9FD" stroke="#151515" stroke-width="2" stroke-linejoin="round"/>
<path d="M816.252 36.2108L756.435 1.58538L816.252 -33.3442L876.069 1.28115L816.252 36.2108Z" fill="#87D9FD" stroke="#151515" stroke-width="2" stroke-linejoin="round"/>
<path d="M816.252 36.2111L876.069 1.28149V6.84589L816.252 41.7755V36.2111Z" fill="#87D9FD" stroke="#151515" stroke-width="2" stroke-linejoin="round"/>
<path d="M816.252 36.2108L756.435 1.58545V7.14985L816.252 41.7752V36.2108Z" fill="#151515" stroke="#151515" stroke-width="2" stroke-linejoin="round"/>
<path d="M891.372 86.2911L831.555 51.6657L891.372 16.7361L951.189 51.3615L891.372 86.2911Z" fill="#87D9FD" stroke="#151515" stroke-width="2" stroke-linejoin="round"/>
<path d="M891.372 80.7271L831.555 46.1017L891.372 11.1721L951.189 45.7975L891.372 80.7271Z" fill="#87D9FD" stroke="#151515" stroke-width="2" stroke-linejoin="round"/>
<path d="M891.372 80.7272L951.189 45.7976V51.362L891.372 86.2916V80.7272Z" fill="#87D9FD" stroke="#151515" stroke-width="2" stroke-linejoin="round"/>
<path d="M891.372 80.7269L831.555 46.1016V51.666L891.372 86.2914V80.7269Z" fill="#151515" stroke="#151515" stroke-width="2" stroke-linejoin="round"/>
<path d="M882.921 284.247L620.258 132.788L418.844 248.241L681.507 399.7L882.921 284.247Z" fill="#151515" fill-opacity="0.2"/>
<path d="M418.722 181.33L681.385 332.79V371.771L418.722 220.312V181.33Z" fill="#151515" stroke="#151515" stroke-width="2" stroke-linecap="round" stroke-linejoin="round"/>
<path d="M882.921 217.295L620.258 65.8359L418.844 181.289L681.507 332.748L882.921 217.295Z" fill="#F97289" stroke="#151515" stroke-width="2" stroke-linecap="round" stroke-linejoin="round"/>
<path d="M882.923 256.276L882.923 217.295L681.508 332.748L681.508 371.729L882.923 256.276Z" fill="#F7A1B0" stroke="#151515" stroke-width="2" stroke-linecap="round" stroke-linejoin="round"/>
<path d="M719.942 148.826L623.088 93.3833L464.671 184.863L561.525 240.305L719.942 148.826Z" fill="#F7A1B0" stroke="#151515" stroke-width="2" stroke-linejoin="round"/>
<path d="M719.943 143.282L623.089 87.8398L464.671 179.32L561.525 234.762L719.943 143.282Z" fill="#F7A1B0" stroke="#151515" stroke-width="2" stroke-linejoin="round"/>
<path d="M561.524 234.761L464.67 179.319V184.863L561.524 240.306V234.761Z" fill="#151515" stroke="#151515" stroke-width="2" stroke-linejoin="round"/>
<path d="M561.524 234.761L719.942 143.281V148.825L561.524 240.305V234.761Z" fill="#F7A1B0" stroke="#151515" stroke-width="2" stroke-linejoin="round"/>
<path d="M735.058 165.957C738.186 164.152 743.26 164.155 746.38 165.966L784.91 188.326C787.866 190.041 787.998 192.788 785.212 194.595C782.182 196.561 776.911 196.649 773.689 194.789L735.058 172.485C731.936 170.683 731.936 167.76 735.058 165.957Z" fill="#151515" stroke="#151515" stroke-width="2"/>
<path d="M735.058 160.414C738.186 158.608 743.26 158.612 746.38 160.422L784.91 182.783C787.866 184.498 787.998 187.245 785.212 189.052C782.182 191.017 776.911 191.106 773.689 189.245L735.058 166.942C731.936 165.139 731.936 162.217 735.058 160.414Z" fill="#F7A1B0" stroke="#151515" stroke-width="2"/>
<path d="M735.058 166.942L773.688 189.245V194.789L735.058 172.486C733.44 171.552 732.661 170.318 732.72 169.094V163.821C732.78 164.954 733.56 166.077 735.058 166.942Z" fill="#151515" stroke="#151515" stroke-width="2" stroke-linejoin="round"/>
<path d="M773.689 189.244C776.912 191.105 782.182 191.017 785.213 189.051C786.546 188.186 787.211 187.106 787.218 186.026V185.993C787.218 186.004 787.218 186.015 787.218 186.026V191.571C787.211 192.65 786.546 193.73 785.213 194.595C782.182 196.561 776.912 196.649 773.689 194.789V189.244Z" fill="#F7A1B0"/>
<path d="M785.213 189.051C782.182 191.017 776.912 191.105 773.689 189.244V194.789C776.912 196.649 782.182 196.561 785.213 194.595C786.546 193.73 787.211 192.65 787.218 191.571V185.993C787.225 187.084 786.56 188.177 785.213 189.051Z" stroke="#151515" stroke-width="2" stroke-linejoin="round"/>
<path d="M708.732 175.66C711.859 173.854 716.93 173.856 720.053 175.664L802.172 223.206C805.023 224.857 805.267 227.482 802.738 229.299C799.785 231.42 794.297 231.593 790.963 229.668L708.732 182.192C705.608 180.388 705.608 177.464 708.732 175.66Z" fill="#F7A1B0" stroke="#151515" stroke-width="2" stroke-linejoin="round"/>
<path d="M708.732 175.66C711.859 173.854 716.93 173.856 720.053 175.664L802.172 223.206C805.023 224.857 805.267 227.482 802.738 229.299C799.785 231.42 794.297 231.593 790.963 229.668L708.732 182.192C705.608 180.388 705.608 177.464 708.732 175.66Z" fill="#F7A1B0" stroke="#151515" stroke-width="2" stroke-linejoin="round"/>
<path d="M708.732 182.192L790.963 229.669V233.481C790.963 234.251 790.13 234.732 789.463 234.347L708.732 187.736C707.15 186.823 706.369 185.623 706.389 184.426V178.971C706.409 180.138 707.189 181.302 708.732 182.192Z" fill="#151515" stroke="#151515" stroke-width="2" stroke-linejoin="round"/>
<path d="M790.963 229.668C794.296 231.593 799.785 231.421 802.737 229.299C803.903 228.461 804.48 227.452 804.483 226.446V231.99C804.48 232.996 803.903 234.005 802.737 234.843C799.785 236.965 794.296 237.137 790.963 235.213V229.668Z" fill="#F7A1B0" stroke="#151515" stroke-width="2" stroke-linejoin="round"/>
<path d="M682.393 190.905C685.52 189.1 690.591 189.102 693.714 190.91L775.833 238.451C778.684 240.102 778.928 242.727 776.399 244.544C773.447 246.666 767.958 246.838 764.625 244.913L682.393 197.437C679.269 195.633 679.269 192.709 682.393 190.905Z" fill="#F7A1B0" stroke="#151515" stroke-width="2" stroke-linejoin="round"/>
<path d="M682.393 190.905C685.52 189.1 690.591 189.102 693.714 190.91L775.833 238.451C778.684 240.102 778.928 242.727 776.399 244.544C773.447 246.666 767.958 246.838 764.625 244.913L682.393 197.437C679.269 195.633 679.269 192.709 682.393 190.905Z" fill="#F7A1B0" stroke="#151515" stroke-width="2" stroke-linejoin="round"/>
<path d="M682.393 197.437L764.625 244.914V250.458L682.393 202.982C680.811 202.068 680.03 200.868 680.05 199.671V194.216C680.07 195.383 680.851 196.547 682.393 197.437Z" fill="#151515" stroke="#151515" stroke-width="2" stroke-linejoin="round"/>
<path d="M764.626 244.913C767.959 246.838 773.448 246.666 776.4 244.544C777.566 243.706 778.143 242.697 778.146 241.691V247.235C778.143 248.241 777.566 249.251 776.4 250.088C773.448 252.21 767.959 252.382 764.626 250.458V244.913Z" fill="#F7A1B0" stroke="#151515" stroke-width="2" stroke-linejoin="round"/>
<path d="M651.9 206.152C655.027 204.347 660.098 204.349 663.221 206.157L745.34 253.698C748.191 255.349 748.435 257.974 745.906 259.791C742.953 261.913 737.465 262.085 734.131 260.161L651.9 212.684C648.776 210.88 648.776 207.956 651.9 206.152Z" fill="#F7A1B0" stroke="#151515" stroke-width="2" stroke-linejoin="round"/>
<path d="M651.9 206.152C655.027 204.347 660.098 204.349 663.221 206.157L745.34 253.698C748.191 255.349 748.435 257.974 745.906 259.791C742.953 261.913 737.465 262.085 734.131 260.161L651.9 212.684C648.776 210.88 648.776 207.956 651.9 206.152Z" fill="#F7A1B0" stroke="#151515" stroke-width="2" stroke-linejoin="round"/>
<path d="M651.9 212.685L734.131 260.161V265.705L651.9 218.229C650.318 217.316 649.537 216.115 649.557 214.918V209.464C649.577 210.631 650.357 211.794 651.9 212.685Z" fill="#151515" stroke="#151515" stroke-width="2" stroke-linejoin="round"/>
<path d="M734.131 260.161C737.464 262.085 742.953 261.913 745.905 259.791C747.071 258.954 747.648 257.944 747.651 256.938V262.482C747.648 263.489 747.071 264.498 745.905 265.336C742.953 267.457 737.464 267.629 734.131 265.705V260.161Z" fill="#F7A1B0" stroke="#151515" stroke-width="2" stroke-linejoin="round"/>
<path d="M241.304 353.83L504.97 505.868L579.407 463.2L315.741 311.162L241.304 353.83Z" fill="#151515" fill-opacity="0.2"/>
<path d="M241.304 286.878L504.97 438.916L579.407 396.248L315.741 244.21L241.304 286.878Z" fill="#ED6B22" stroke="#151515" stroke-width="2" stroke-linecap="round" stroke-linejoin="round"/>
<path d="M241.304 286.879L504.97 438.917V478.047L241.304 326.009V286.879Z" fill="#151515" stroke="#151515" stroke-width="2" stroke-linecap="round" stroke-linejoin="round"/>
<path d="M504.97 478.046V438.916L579.407 396.248V435.378L504.97 478.046Z" fill="#F39A68" stroke="#151515" stroke-width="2" stroke-linecap="round" stroke-linejoin="round"/>
<path d="M311.776 270.977L391.989 314.805L367.431 328.023L287.218 284.195L311.776 270.977Z" fill="#F39A68" stroke="#151515" stroke-width="2" stroke-linejoin="round"/>
<path d="M311.774 265.412L391.986 309.24L367.428 322.457L287.215 278.63L311.774 265.412Z" fill="#F39A68" stroke="#151515" stroke-width="2" stroke-linejoin="round"/>
<path d="M287.215 278.63L367.428 322.458V328.023L287.215 284.196V278.63Z" fill="#151515" stroke="#151515" stroke-width="2" stroke-linejoin="round"/>
<path d="M367.427 322.457L391.985 309.239V314.805L367.427 328.022V322.457Z" fill="#F39A68" stroke="#151515" stroke-width="2" stroke-linejoin="round"/>
<path d="M413.935 341.978C417.076 340.164 422.171 340.171 425.299 341.992L444.261 353.033C447.271 354.785 447.346 357.598 444.432 359.403C441.359 361.307 436.164 361.36 432.978 359.52L413.935 348.525C410.803 346.717 410.803 343.786 413.935 341.978Z" fill="#151515" stroke="#151515" stroke-width="2"/>
<path d="M413.935 336.413C417.076 334.599 422.171 334.605 425.299 336.427L444.261 347.468C447.271 349.22 447.346 352.032 444.432 353.838C441.359 355.742 436.164 355.794 432.978 353.954L413.935 342.96C410.803 341.152 410.803 338.221 413.935 336.413Z" fill="#F39A68" stroke="#151515" stroke-width="2"/>
<path d="M413.935 342.96L432.978 353.955V359.52L413.935 348.526C412.361 347.618 411.579 346.426 411.586 345.235L411.591 339.851C411.584 339.74 411.584 339.629 411.591 339.518L411.591 339.851C411.66 340.98 412.441 342.098 413.935 342.96Z" fill="#151515"/>
<path d="M432.978 353.955L413.935 342.96C412.294 342.013 411.513 340.758 411.591 339.518L411.586 345.235C411.579 346.426 412.361 347.618 413.935 348.526L432.978 359.52V353.955Z" stroke="#151515" stroke-width="2" stroke-linejoin="round"/>
<path d="M432.978 353.954C436.165 355.794 441.359 355.742 444.432 353.838C445.835 352.969 446.545 351.866 446.569 350.761V350.648C446.57 350.686 446.57 350.723 446.569 350.761V356.326C446.545 357.432 445.835 358.534 444.432 359.403C441.359 361.307 436.165 361.36 432.978 359.52V353.954Z" fill="#F39A68"/>
<path d="M444.432 353.838C441.359 355.742 436.165 355.794 432.978 353.954V359.52C436.165 361.36 441.359 361.307 444.432 359.403C445.835 358.534 446.545 357.432 446.569 356.326V350.648C446.593 351.791 445.883 352.939 444.432 353.838Z" stroke="#151515" stroke-width="2" stroke-linejoin="round"/>
<path d="M454.283 365.631C457.424 363.817 462.52 363.824 465.648 365.645L484.61 376.686C487.619 378.439 487.695 381.251 484.78 383.056C481.708 384.96 476.513 385.013 473.326 383.173L454.283 372.178C451.152 370.37 451.152 367.439 454.283 365.631Z" fill="#151515" stroke="#151515" stroke-width="2"/>
<path d="M454.283 360.066C457.424 358.252 462.52 358.259 465.648 360.08L484.61 371.121C487.619 372.873 487.695 375.686 484.78 377.491C481.708 379.395 476.513 379.447 473.326 377.608L454.283 366.613C451.152 364.805 451.152 361.874 454.283 360.066Z" fill="#F39A68" stroke="#151515" stroke-width="2"/>
<path d="M454.283 366.614L473.326 377.608V383.173L454.283 372.179C452.71 371.271 451.927 370.079 451.935 368.889L451.94 363.504C451.933 363.393 451.933 363.282 451.94 363.171L451.94 363.504C452.008 364.633 452.79 365.751 454.283 366.614Z" fill="#151515"/>
<path d="M473.326 377.608L454.283 366.614C452.643 365.667 451.862 364.411 451.94 363.171L451.935 368.889C451.927 370.079 452.71 371.271 454.283 372.179L473.326 383.173V377.608Z" stroke="#151515" stroke-width="2" stroke-linejoin="round"/>
<path d="M473.326 377.608C476.513 379.448 481.708 379.395 484.78 377.491C486.183 376.622 486.894 375.519 486.917 374.414V374.301C486.918 374.339 486.918 374.376 486.917 374.414V379.979C486.894 381.085 486.183 382.187 484.78 383.057C481.708 384.96 476.513 385.013 473.326 383.173V377.608Z" fill="#F39A68"/>
<path d="M484.78 377.491C481.708 379.395 476.513 379.448 473.326 377.608V383.173C476.513 385.013 481.708 384.96 484.78 383.057C486.183 382.187 486.894 381.085 486.917 379.979V374.301C486.941 375.444 486.231 376.592 484.78 377.491Z" stroke="#151515" stroke-width="2" stroke-linejoin="round"/>
<path d="M494.634 389.284C497.775 387.471 502.871 387.477 505.998 389.298L524.96 400.339C527.97 402.092 528.045 404.904 525.131 406.71C522.058 408.613 516.864 408.666 513.677 406.826L494.634 395.832C491.502 394.024 491.502 391.092 494.634 389.284Z" fill="#151515" stroke="#151515" stroke-width="2"/>
<path d="M494.634 383.719C497.775 381.906 502.871 381.912 505.998 383.733L524.96 394.774C527.97 396.527 528.045 399.339 525.131 401.145C522.058 403.048 516.864 403.101 513.677 401.261L494.634 390.267C491.502 388.459 491.502 385.527 494.634 383.719Z" fill="#F39A68" stroke="#151515" stroke-width="2"/>
<path d="M494.634 390.267L513.677 401.262V406.827L494.634 395.832C493.061 394.924 492.278 393.732 492.285 392.542L492.29 387.157C492.283 387.046 492.283 386.935 492.29 386.824L492.29 387.157C492.359 388.287 493.14 389.405 494.634 390.267Z" fill="#151515"/>
<path d="M513.677 401.262L494.634 390.267C492.994 389.32 492.212 388.065 492.29 386.824L492.285 392.542C492.278 393.732 493.061 394.924 494.634 395.832L513.677 406.827V401.262Z" stroke="#151515" stroke-width="2" stroke-linejoin="round"/>
<path d="M513.677 401.261C516.864 403.101 522.058 403.048 525.131 401.145C526.534 400.275 527.244 399.173 527.268 398.068V397.955C527.268 397.992 527.268 398.03 527.268 398.068V403.633C527.244 404.738 526.534 405.841 525.131 406.71C522.058 408.614 516.864 408.666 513.677 406.827V401.261Z" fill="#F39A68"/>
<path d="M525.131 401.145C522.058 403.048 516.864 403.101 513.677 401.261V406.827C516.864 408.666 522.058 408.614 525.131 406.71C526.534 405.841 527.244 404.738 527.268 403.633V397.955C527.292 399.098 526.582 400.246 525.131 401.145Z" stroke="#151515" stroke-width="2" stroke-linejoin="round"/>
<path d="M914.167 396.943L1177.79 548.954L1275.16 493.136L1011.54 341.126L914.167 396.943Z" fill="#151515" fill-opacity="0.2"/>
<path d="M914.167 329.991L1177.79 482.002L1275.16 426.184L1011.54 274.174L914.167 329.991Z" fill="#ED6B22" stroke="#151515" stroke-width="2" stroke-linecap="round" stroke-linejoin="round"/>
<path d="M914.167 329.992L1177.79 482.003V521.126L914.167 369.116V329.992Z" fill="#151515" stroke="#151515" stroke-width="2" stroke-linecap="round" stroke-linejoin="round"/>
<path d="M1017.11 366.493L957.291 331.867L1017.11 296.938L1076.93 331.563L1017.11 366.493Z" fill="#F39A68" stroke="#151515" stroke-width="2" stroke-linejoin="round"/>
<path d="M1017.11 360.929L957.292 326.303L1017.11 291.374L1076.93 325.999L1017.11 360.929Z" fill="#F39A68" stroke="#151515" stroke-width="2" stroke-linejoin="round"/>
<path d="M1017.11 360.929L1076.93 325.999V331.564L1017.11 366.493V360.929Z" fill="#F39A68" stroke="#151515" stroke-width="2" stroke-linejoin="round"/>
<path d="M1017.11 360.929L957.291 326.303V331.868L1017.11 366.493V360.929Z" fill="#151515" stroke="#151515" stroke-width="2" stroke-linejoin="round"/>
<path d="M659.749 528.693L922.391 680.141L1083.51 587.786L820.868 436.338L659.749 528.693Z" fill="#151515" fill-opacity="0.2"/>
<path d="M659.749 461.741L922.391 613.189L1083.51 520.834L820.868 369.386L659.749 461.741Z" fill="#8E44EC" stroke="#151515" stroke-width="2" stroke-linecap="round" stroke-linejoin="round"/>
<path d="M659.749 461.742L922.391 613.189V652.167L659.749 500.72V461.742Z" fill="#151515" stroke="#151515" stroke-width="2" stroke-linecap="round" stroke-linejoin="round"/>
<path d="M891.311 434.852C894.438 433.046 899.51 433.049 902.631 434.858L960.754 468.539C963.663 470.225 963.847 472.917 961.178 474.73C958.181 476.765 952.814 476.89 949.542 475.001L891.311 441.382C888.188 439.578 888.188 436.655 891.311 434.852Z" fill="#B382F2" stroke="#151515" stroke-width="2"/>
<path d="M891.311 429.308C894.438 427.503 899.51 427.506 902.631 429.314L960.754 462.996C963.663 464.682 963.847 467.373 961.178 469.186C958.181 471.221 952.814 471.347 949.542 469.458L891.311 435.838C888.188 434.035 888.188 431.112 891.311 429.308Z" fill="#B382F2" stroke="#151515" stroke-width="2"/>
<path d="M891.311 435.838L949.542 469.458V475.002L891.311 441.382C889.766 440.49 888.985 439.323 888.969 438.154L888.969 432.591C888.976 433.766 889.757 434.941 891.311 435.838Z" fill="#151515" stroke="#151515" stroke-width="2" stroke-linejoin="round"/>
<path d="M949.542 469.457C952.814 471.346 958.181 471.22 961.178 469.185C962.438 468.33 963.062 467.278 963.064 466.229V471.773C963.062 472.822 962.438 473.873 961.178 474.729C958.181 476.764 952.814 476.89 949.542 475.001V469.457Z" fill="#B382F2" stroke="#151515" stroke-width="2" stroke-linejoin="round"/>
<path d="M820.629 420.99C823.755 419.185 828.825 419.186 831.949 420.993L980.255 506.755C982.947 508.312 983.336 510.756 981.18 512.57C978.378 514.928 972.556 515.239 969.054 513.216L820.629 427.523C817.504 425.719 817.504 422.794 820.629 420.99Z" fill="#B382F2" stroke="#151515" stroke-width="2"/>
<path d="M820.629 415.447C823.755 413.641 828.825 413.643 831.949 415.449L980.255 501.211C982.947 502.768 983.336 505.212 981.18 507.027C978.378 509.385 972.556 509.695 969.054 507.673L820.629 421.98C817.504 420.176 817.504 417.251 820.629 415.447Z" fill="#B382F2" stroke="#151515" stroke-width="2"/>
<path d="M820.629 421.979L969.054 507.672V513.216L820.629 427.523C819.039 426.605 818.258 425.397 818.286 424.194V418.778C818.285 418.734 818.285 418.69 818.286 418.646V418.778C818.314 419.938 819.095 421.093 820.629 421.979Z" fill="#151515"/>
<path d="M820.629 421.979L969.054 507.672V513.216L820.629 427.523C819.039 426.605 818.258 425.397 818.286 424.194V418.646C818.256 419.85 819.037 421.06 820.629 421.979Z" stroke="#151515" stroke-width="2" stroke-linejoin="round"/>
<path d="M825.914 445.002C829.04 443.197 834.111 443.198 837.234 445.005L944.791 507.238C947.581 508.852 947.884 511.406 945.501 513.225C942.602 515.438 936.985 515.661 933.587 513.7L825.914 451.534C822.789 449.73 822.789 446.806 825.914 445.002Z" fill="#B382F2" stroke="#151515" stroke-width="2"/>
<path d="M825.914 439.458C829.04 437.653 834.111 437.655 837.234 439.462L944.791 501.694C947.581 503.309 947.884 505.863 945.501 507.682C942.602 509.894 936.985 510.118 933.587 508.156L825.914 445.991C822.789 444.187 822.789 441.262 825.914 439.458Z" fill="#B382F2" stroke="#151515" stroke-width="2"/>
<path d="M825.914 445.991L933.587 508.157V513.701L825.914 451.535C824.325 450.618 823.544 449.411 823.571 448.209V442.783C823.57 442.744 823.57 442.706 823.571 442.667V442.783C823.596 443.946 824.377 445.104 825.914 445.991Z" fill="#151515"/>
<path d="M825.914 445.991L933.587 508.157V513.701L825.914 451.535C824.325 450.618 823.544 449.411 823.571 448.209V442.667C823.545 443.868 824.326 445.075 825.914 445.991Z" stroke="#151515" stroke-width="2" stroke-linejoin="round"/>
<path d="M693.012 462.072L923.022 593.737L980.624 560.474L750.613 428.809L693.012 462.072Z" fill="#B382F2" stroke="#151515" stroke-width="2" stroke-linejoin="round"/>
<path d="M693.012 456.528L923.022 588.193L980.624 554.931L750.613 423.266L693.012 456.528Z" fill="#B382F2" stroke="#151515" stroke-width="2" stroke-linejoin="round"/>
<path d="M693.012 456.528L923.022 588.193V593.737L693.012 462.072V456.528Z" fill="#151515" stroke="#151515" stroke-width="2" stroke-linejoin="round"/>
</g>
<defs>
<clipPath id="clip0_135_2789">
<rect width="1030" height="489" fill="white"/>
</clipPath>
</defs>
</svg>
