<svg width="1440" height="656" viewBox="0 0 1440 656" fill="none" xmlns="http://www.w3.org/2000/svg">
<g clip-path="url(#clip0_1005_53)">
<path d="M1158.29 494.288L1304.02 410.422L1599.35 579.667L1453.62 663.532L1158.29 494.288Z" fill="#151515" fill-opacity="0.2"/>
<path d="M1304.02 365.884L1158.29 449.75L1148 443.866L1293.73 360L1304.02 365.884Z" fill="#303030" stroke="#151515" stroke-width="2" stroke-linecap="round" stroke-linejoin="round"/>
<path d="M1176.76 436.064C1175.56 436.759 1173.61 436.759 1172.41 436.064C1171.81 435.716 1171.51 435.372 1171.51 435.034V432.616C1171.53 432.175 1171.83 431.738 1172.41 431.402C1173.61 430.71 1175.56 430.71 1176.76 431.402C1177.35 431.738 1177.65 432.175 1177.66 432.616V435.034C1177.66 435.372 1177.37 435.716 1176.76 436.064Z" fill="#151515"/>
<mask id="mask0_1005_53" style="mask-type:alpha" maskUnits="userSpaceOnUse" x="1171" y="430" width="7" height="7">
<path d="M1176.76 436.066C1175.56 436.761 1173.61 436.761 1172.41 436.066C1171.81 435.718 1171.51 435.374 1171.51 435.036V432.631C1171.53 432.191 1171.83 431.754 1172.41 431.418C1173.61 430.725 1175.56 430.725 1176.76 431.418C1177.35 431.754 1177.65 432.191 1177.66 432.631V435.036C1177.66 435.374 1177.37 435.718 1176.76 436.066Z" fill="#9E00FF"/>
</mask>
<g mask="url(#mask0_1005_53)">
<rect width="6.58529" height="9.64218" transform="matrix(-1 0 0 1 1175.67 428.934)" fill="#717171"/>
<path d="M1176.8 435.978C1175.6 436.672 1173.65 436.672 1172.45 435.978C1171.85 435.63 1171.55 435.286 1171.55 434.948V432.616C1171.57 432.175 1171.87 431.738 1172.46 431.402C1173.66 430.71 1175.6 430.71 1176.8 431.402C1177.39 431.738 1177.69 432.175 1177.7 432.616V434.948C1177.7 435.286 1177.41 435.63 1176.8 435.978Z" stroke="#151515" stroke-width="2" stroke-linejoin="bevel"/>
</g>
<path d="M1172.41 433.925C1173.61 434.617 1175.56 434.617 1176.76 433.925C1177.96 433.232 1177.96 432.11 1176.76 431.418C1175.56 430.725 1173.61 430.725 1172.41 431.418C1171.21 432.11 1171.21 433.232 1172.41 433.925Z" fill="#505050" stroke="#151515" stroke-width="2"/>
<path d="M1169.84 439.982C1168.64 440.677 1166.69 440.677 1165.49 439.982C1164.89 439.634 1164.59 439.29 1164.59 438.952V436.534C1164.61 436.093 1164.91 435.656 1165.49 435.32C1166.7 434.628 1168.64 434.628 1169.84 435.32C1170.43 435.656 1170.73 436.093 1170.74 436.534V438.952C1170.74 439.29 1170.45 439.634 1169.84 439.982Z" fill="#151515"/>
<mask id="mask1_1005_53" style="mask-type:alpha" maskUnits="userSpaceOnUse" x="1164" y="434" width="7" height="7">
<path d="M1169.84 439.984C1168.64 440.679 1166.69 440.679 1165.49 439.984C1164.89 439.636 1164.59 439.292 1164.59 438.954V436.549C1164.61 436.109 1164.91 435.672 1165.49 435.335C1166.7 434.643 1168.64 434.643 1169.84 435.335C1170.43 435.672 1170.73 436.109 1170.74 436.549V438.954C1170.74 439.292 1170.45 439.636 1169.84 439.984Z" fill="#9E00FF"/>
</mask>
<g mask="url(#mask1_1005_53)">
<rect width="6.58529" height="9.64218" transform="matrix(-1 0 0 1 1168.75 432.852)" fill="#717171"/>
<path d="M1169.89 439.896C1168.68 440.59 1166.74 440.59 1165.53 439.896C1164.93 439.548 1164.63 439.204 1164.63 438.866V436.534C1164.65 436.093 1164.95 435.656 1165.54 435.32C1166.74 434.628 1168.68 434.628 1169.89 435.32C1170.47 435.656 1170.77 436.093 1170.79 436.534V438.866C1170.79 439.204 1170.49 439.548 1169.89 439.896Z" stroke="#151515" stroke-width="2" stroke-linejoin="bevel"/>
</g>
<path d="M1165.49 437.843C1166.69 438.535 1168.64 438.535 1169.84 437.843C1171.04 437.15 1171.04 436.028 1169.84 435.336C1168.64 434.643 1166.69 434.643 1165.49 435.336C1164.29 436.028 1164.29 437.15 1165.49 437.843Z" fill="#505050" stroke="#151515" stroke-width="2"/>
<path d="M1162.92 443.818C1161.72 444.512 1159.77 444.512 1158.57 443.818C1157.97 443.47 1157.67 443.126 1157.67 442.788V440.37C1157.69 439.929 1157.99 439.492 1158.57 439.156C1159.77 438.464 1161.72 438.464 1162.92 439.156C1163.5 439.492 1163.8 439.929 1163.82 440.37V442.788C1163.82 443.126 1163.52 443.47 1162.92 443.818Z" fill="#151515"/>
<mask id="mask2_1005_53" style="mask-type:alpha" maskUnits="userSpaceOnUse" x="1157" y="438" width="7" height="7">
<path d="M1162.92 443.82C1161.72 444.514 1159.77 444.514 1158.57 443.82C1157.97 443.472 1157.67 443.128 1157.67 442.79V440.385C1157.69 439.945 1157.99 439.507 1158.57 439.171C1159.77 438.479 1161.72 438.479 1162.92 439.171C1163.5 439.507 1163.8 439.945 1163.82 440.385V442.79C1163.82 443.128 1163.52 443.472 1162.92 443.82Z" fill="#9E00FF"/>
</mask>
<g mask="url(#mask2_1005_53)">
<rect width="6.58529" height="9.64218" transform="matrix(-1 0 0 1 1161.83 436.688)" fill="#717171"/>
<path d="M1162.97 443.732C1161.76 444.426 1159.82 444.426 1158.61 443.732C1158.01 443.384 1157.71 443.04 1157.71 442.702V440.37C1157.73 439.929 1158.03 439.492 1158.62 439.156C1159.82 438.464 1161.76 438.464 1162.97 439.156C1163.55 439.492 1163.85 439.929 1163.87 440.37V442.702C1163.87 443.04 1163.57 443.384 1162.97 443.732Z" stroke="#151515" stroke-width="2" stroke-linejoin="bevel"/>
</g>
<path d="M1158.57 441.679C1159.77 442.371 1161.72 442.371 1162.92 441.679C1164.12 440.986 1164.12 439.864 1162.92 439.172C1161.72 438.479 1159.77 438.479 1158.57 439.172C1157.37 439.864 1157.37 440.986 1158.57 441.679Z" fill="#505050" stroke="#151515" stroke-width="2"/>
<path d="M1304.02 365.883L1158.29 449.748V471.333L1304.02 387.468V365.883Z" fill="#151515" stroke="#151515" stroke-width="2" stroke-linecap="round" stroke-linejoin="round"/>
<path d="M1158.29 471.332V449.747L1148 443.863V465.448L1158.29 471.332Z" fill="#505050" stroke="#151515" stroke-width="2" stroke-linecap="round" stroke-linejoin="round"/>
<path d="M1344.87 389.583L1199.14 473.449L1158 449.913L1303.73 366.047L1344.87 389.583Z" fill="#ED6B22" stroke="#151515" stroke-width="2" stroke-linecap="round" stroke-linejoin="round"/>
<path d="M1344.87 389.582L1199.14 473.448V495.032L1344.87 411.167V389.582Z" fill="#151515" stroke="#151515" stroke-width="2" stroke-linecap="round" stroke-linejoin="round"/>
<path d="M1199.14 495.031V473.446L1158 449.91V471.495L1199.14 495.031Z" fill="#F39A68" stroke="#151515" stroke-width="2" stroke-linecap="round" stroke-linejoin="round"/>
<path d="M1225.92 427.809L1181.58 451.984L1195.16 459.275L1239.49 435.1L1225.92 427.809Z" fill="#F39A68" stroke="#151515" stroke-width="2" stroke-linejoin="round"/>
<path d="M1225.92 424.738L1181.59 448.914L1195.16 456.205L1239.49 432.029L1225.92 424.738Z" fill="#F39A68" stroke="#151515" stroke-width="2" stroke-linejoin="round"/>
<path d="M1239.49 432.027L1195.16 456.203V459.273L1239.49 435.097V432.027Z" fill="#151515" stroke="#151515" stroke-width="2" stroke-linejoin="round"/>
<path d="M1195.16 456.205L1181.58 448.914V451.984L1195.16 459.275V456.205Z" fill="#F39A68" stroke="#151515" stroke-width="2" stroke-linejoin="round"/>
<path d="M1312.46 383.975C1310.72 382.974 1307.9 382.978 1306.17 383.982L1295.69 390.073C1294.03 391.039 1293.99 392.591 1295.6 393.587C1297.3 394.637 1300.17 394.666 1301.93 393.651L1312.46 387.586C1314.19 386.589 1314.19 384.972 1312.46 383.975Z" fill="#151515" stroke="#151515" stroke-width="2"/>
<path d="M1312.46 380.904C1310.72 379.904 1307.9 379.907 1306.17 380.912L1295.69 387.002C1294.03 387.969 1293.99 389.52 1295.6 390.516C1297.3 391.566 1300.17 391.595 1301.93 390.58L1312.46 384.516C1314.19 383.519 1314.19 381.902 1312.46 380.904Z" fill="#F39A68" stroke="#151515" stroke-width="2"/>
<path d="M1312.46 384.516L1301.93 390.581V393.651L1312.46 387.586C1313.33 387.085 1313.76 386.428 1313.75 385.771L1313.75 382.801C1313.75 382.74 1313.75 382.678 1313.75 382.617L1313.75 382.801C1313.71 383.424 1313.28 384.041 1312.46 384.516Z" fill="#151515"/>
<path d="M1301.93 390.581L1312.46 384.516C1313.36 383.994 1313.79 383.301 1313.75 382.617L1313.75 385.771C1313.76 386.428 1313.33 387.085 1312.46 387.586L1301.93 393.651V390.581Z" stroke="#151515" stroke-width="2" stroke-linejoin="round"/>
<path d="M1301.93 390.582C1300.17 391.597 1297.3 391.567 1295.6 390.517C1294.82 390.038 1294.43 389.43 1294.42 388.82V388.758C1294.42 388.779 1294.42 388.799 1294.42 388.82V391.89C1294.43 392.5 1294.82 393.108 1295.6 393.587C1297.3 394.637 1300.17 394.666 1301.93 393.652V390.582Z" fill="#F39A68"/>
<path d="M1295.6 390.517C1297.3 391.567 1300.17 391.597 1301.93 390.582V393.652C1300.17 394.666 1297.3 394.637 1295.6 393.587C1294.82 393.108 1294.43 392.5 1294.42 391.89V388.758C1294.4 389.388 1294.8 390.022 1295.6 390.517Z" stroke="#151515" stroke-width="2" stroke-linejoin="round"/>
<path d="M1290.15 397.021C1288.42 396.021 1285.6 396.025 1283.87 397.029L1273.39 403.119C1271.73 404.086 1271.69 405.637 1273.3 406.633C1275 407.683 1277.87 407.713 1279.63 406.698L1290.15 400.633C1291.88 399.636 1291.88 398.019 1290.15 397.021Z" fill="#151515" stroke="#151515" stroke-width="2"/>
<path d="M1290.15 393.951C1288.42 392.951 1285.6 392.954 1283.87 393.959L1273.39 400.049C1271.73 401.016 1271.69 402.567 1273.3 403.563C1275 404.613 1277.87 404.642 1279.63 403.627L1290.15 397.563C1291.88 396.565 1291.88 394.948 1290.15 393.951Z" fill="#F39A68" stroke="#151515" stroke-width="2"/>
<path d="M1290.15 397.563L1279.63 403.628V406.698L1290.15 400.633C1291.02 400.132 1291.46 399.475 1291.45 398.818L1291.45 395.848C1291.45 395.787 1291.45 395.725 1291.45 395.664L1291.45 395.848C1291.41 396.471 1290.98 397.087 1290.15 397.563Z" fill="#151515"/>
<path d="M1279.63 403.628L1290.15 397.563C1291.06 397.041 1291.49 396.348 1291.45 395.664L1291.45 398.818C1291.46 399.475 1291.02 400.132 1290.15 400.633L1279.63 406.698V403.628Z" stroke="#151515" stroke-width="2" stroke-linejoin="round"/>
<path d="M1279.63 403.628C1277.87 404.643 1274.99 404.614 1273.3 403.564C1272.52 403.085 1272.13 402.477 1272.12 401.867V401.805C1272.11 401.825 1272.11 401.846 1272.12 401.867V404.937C1272.13 405.546 1272.52 406.155 1273.3 406.634C1274.99 407.684 1277.87 407.713 1279.63 406.698V403.628Z" fill="#F39A68"/>
<path d="M1273.3 403.564C1274.99 404.614 1277.87 404.643 1279.63 403.628V406.698C1277.87 407.713 1274.99 407.684 1273.3 406.634C1272.52 406.155 1272.13 405.546 1272.12 404.937V401.805C1272.1 402.435 1272.49 403.068 1273.3 403.564Z" stroke="#151515" stroke-width="2" stroke-linejoin="round"/>
<path d="M1267.85 410.068C1266.12 409.068 1263.3 409.071 1261.57 410.076L1251.09 416.166C1249.43 417.133 1249.39 418.684 1251 419.68C1252.69 420.73 1255.57 420.759 1257.33 419.745L1267.85 413.68C1269.58 412.683 1269.58 411.066 1267.85 410.068Z" fill="#151515" stroke="#151515" stroke-width="2"/>
<path d="M1267.85 406.998C1266.12 405.998 1263.3 406.001 1261.57 407.006L1251.09 413.096C1249.43 414.063 1249.39 415.614 1251 416.61C1252.69 417.66 1255.57 417.689 1257.33 416.674L1267.85 410.61C1269.58 409.612 1269.58 407.995 1267.85 406.998Z" fill="#F39A68" stroke="#151515" stroke-width="2"/>
<path d="M1267.85 410.61L1257.33 416.675V419.745L1267.85 413.68C1268.72 413.179 1269.15 412.521 1269.15 411.865L1269.15 408.895C1269.15 408.833 1269.15 408.772 1269.15 408.711L1269.15 408.895C1269.11 409.518 1268.68 410.134 1267.85 410.61Z" fill="#151515"/>
<path d="M1257.33 416.675L1267.85 410.61C1268.76 410.088 1269.19 409.395 1269.15 408.711L1269.15 411.865C1269.15 412.521 1268.72 413.179 1267.85 413.68L1257.33 419.745V416.675Z" stroke="#151515" stroke-width="2" stroke-linejoin="round"/>
<path d="M1257.33 416.675C1255.56 417.69 1252.69 417.661 1251 416.611C1250.22 416.132 1249.83 415.523 1249.81 414.914V414.852C1249.81 414.872 1249.81 414.893 1249.81 414.914V417.984C1249.83 418.593 1250.22 419.202 1251 419.681C1252.69 420.731 1255.56 420.76 1257.33 419.745V416.675Z" fill="#F39A68"/>
<path d="M1251 416.611C1252.69 417.661 1255.56 417.69 1257.33 416.675V419.745C1255.56 420.76 1252.69 420.731 1251 419.681C1250.22 419.202 1249.83 418.593 1249.81 417.984V414.852C1249.8 415.482 1250.19 416.115 1251 416.611Z" stroke="#151515" stroke-width="2" stroke-linejoin="round"/>
<path d="M1434.07 440.307L1288.34 524.172L1198.94 473.03L1344.67 389.164L1434.07 440.307Z" fill="#3BBB96" stroke="#151515" stroke-width="2" stroke-linecap="round" stroke-linejoin="round"/>
<path d="M1288.34 545.755V524.17L1198.94 473.027L1198.94 494.612L1288.34 545.755Z" fill="#75DCC0" stroke="#151515" stroke-width="2" stroke-linecap="round" stroke-linejoin="round"/>
<path d="M1434.07 440.305L1288.34 524.17V545.755L1434.07 461.889V440.305Z" fill="#151515" stroke="#151515" stroke-width="2" stroke-linecap="round" stroke-linejoin="round"/>
<path d="M1383.65 418.999L1415.62 437.419L1351.8 473.874L1287.99 510.33L1254.03 490.759L1220.08 471.188L1283.89 434.733L1347.7 398.277L1383.65 418.999Z" fill="#75DCC0" stroke="#151515" stroke-width="2" stroke-linejoin="round"/>
<path d="M1287.99 513.399V510.329L1220.08 471.188V474.257L1287.99 513.399Z" fill="#75DCC0" stroke="#151515" stroke-width="2" stroke-linejoin="round"/>
<path d="M1415.62 437.418L1287.99 510.329V513.399L1415.62 440.488V437.418Z" fill="#151515" stroke="#151515" stroke-width="2" stroke-linejoin="round"/>
<path d="M1488.04 471.053L1342.31 554.919L1288.48 524.123L1434.21 440.258L1488.04 471.053Z" fill="#F97289" stroke="#151515" stroke-width="2" stroke-linecap="round" stroke-linejoin="round"/>
<path d="M1342.31 576.501V554.916L1288.48 524.121V545.706L1342.31 576.501Z" fill="#F7A1B0" stroke="#151515" stroke-width="2" stroke-linecap="round" stroke-linejoin="round"/>
<path d="M1488.04 471.055L1342.31 554.92V576.505L1488.04 492.639V471.055Z" fill="#151515" stroke="#151515" stroke-width="2" stroke-linecap="round" stroke-linejoin="round"/>
<path d="M1346.88 539.241L1379.95 520.138L1346.88 500.867L1313.81 519.97L1346.88 539.241Z" fill="#F7A1B0" stroke="#151515" stroke-width="2" stroke-linejoin="round"/>
<path d="M1346.88 536.171L1379.95 517.068L1346.88 497.797L1313.81 516.9L1346.88 536.171Z" fill="#F7A1B0" stroke="#151515" stroke-width="2" stroke-linejoin="round"/>
<path d="M1346.88 536.169L1313.82 516.898V519.968L1346.88 539.239V536.169Z" fill="#F7A1B0" stroke="#151515" stroke-width="2" stroke-linejoin="round"/>
<path d="M1346.88 536.17L1379.95 517.066V520.136L1346.88 539.239V536.17Z" fill="#151515" stroke="#151515" stroke-width="2" stroke-linejoin="round"/>
<path d="M1431.13 491.191L1464.2 472.087L1431.13 452.816L1398.07 471.92L1431.13 491.191Z" fill="#F7A1B0" stroke="#151515" stroke-width="2" stroke-linejoin="round"/>
<path d="M1431.13 488.12L1464.2 469.017L1431.13 449.746L1398.07 468.849L1431.13 488.12Z" fill="#F7A1B0" stroke="#151515" stroke-width="2" stroke-linejoin="round"/>
<path d="M1431.13 488.119L1398.07 468.848V471.918L1431.13 491.189V488.119Z" fill="#F7A1B0" stroke="#151515" stroke-width="2" stroke-linejoin="round"/>
<path d="M1431.13 488.119L1464.2 469.016V472.086L1431.13 491.189V488.119Z" fill="#151515" stroke="#151515" stroke-width="2" stroke-linejoin="round"/>
<path d="M1389.01 515.214L1422.07 496.111L1389.01 476.84L1355.94 495.943L1389.01 515.214Z" fill="#F7A1B0" stroke="#151515" stroke-width="2" stroke-linejoin="round"/>
<path d="M1389.01 512.144L1422.07 493.041L1389.01 473.77L1355.94 492.873L1389.01 512.144Z" fill="#F7A1B0" stroke="#151515" stroke-width="2" stroke-linejoin="round"/>
<path d="M1389.01 512.142L1355.94 492.871V495.941L1389.01 515.212V512.142Z" fill="#F7A1B0" stroke="#151515" stroke-width="2" stroke-linejoin="round"/>
<path d="M1389.01 512.142L1422.07 493.039V496.109L1389.01 515.212V512.142Z" fill="#151515" stroke="#151515" stroke-width="2" stroke-linejoin="round"/>
<path d="M1342.13 554.916L1487.86 471.051L1599.61 534.979L1453.88 618.845L1342.13 554.916Z" fill="#59B5F8" stroke="#151515" stroke-width="2" stroke-linecap="round" stroke-linejoin="round"/>
<path d="M1342.13 576.499L1342.13 554.914L1453.88 618.842L1453.88 640.427L1342.13 576.499Z" fill="#87D9FD" stroke="#151515" stroke-width="2" stroke-linecap="round" stroke-linejoin="round"/>
<path d="M1432.56 517.004L1486.29 486.305L1574.19 536.959L1520.45 567.658L1432.56 517.004Z" fill="#87D9FD" stroke="#151515" stroke-width="2" stroke-linejoin="round"/>
<path d="M1432.56 513.934L1486.29 483.234L1574.19 533.888L1520.45 564.588L1432.56 513.934Z" fill="#87D9FD" stroke="#151515" stroke-width="2" stroke-linejoin="round"/>
<path d="M1520.45 564.587L1432.56 513.934V517.004L1520.45 567.657V564.587Z" fill="#87D9FD" stroke="#151515" stroke-width="2" stroke-linejoin="round"/>
<path d="M1402.61 538.702C1400.88 537.702 1398.06 537.704 1396.33 538.706L1374.95 551.088C1373.31 552.037 1373.24 553.558 1374.79 554.559C1376.47 555.647 1379.39 555.696 1381.18 554.666L1402.61 542.316C1404.34 541.318 1404.34 539.7 1402.61 538.702Z" fill="#151515" stroke="#151515" stroke-width="2"/>
<path d="M1402.61 535.631C1400.88 534.631 1398.06 534.634 1396.33 535.636L1374.95 548.018C1373.31 548.967 1373.24 550.488 1374.79 551.489C1376.47 552.577 1379.39 552.626 1381.18 551.596L1402.61 539.246C1404.34 538.248 1404.34 536.63 1402.61 535.631Z" fill="#87D9FD" stroke="#151515" stroke-width="2"/>
<path d="M1402.61 539.244L1381.17 551.593V554.663L1402.61 542.314C1403.5 541.797 1403.94 541.113 1403.9 540.435V537.516C1403.87 538.143 1403.44 538.765 1402.61 539.244Z" fill="#151515" stroke="#151515" stroke-width="2" stroke-linejoin="round"/>
<path d="M1381.18 551.593C1379.39 552.623 1376.47 552.575 1374.78 551.486C1374.04 551.007 1373.68 550.409 1373.67 549.811V549.793C1373.67 549.799 1373.67 549.805 1373.67 549.811V552.881C1373.68 553.479 1374.04 554.077 1374.78 554.556C1376.47 555.644 1379.39 555.693 1381.18 554.663V551.593Z" fill="#87D9FD"/>
<path d="M1374.78 551.486C1376.47 552.575 1379.39 552.623 1381.18 551.593V554.663C1379.39 555.693 1376.47 555.644 1374.78 554.556C1374.04 554.077 1373.68 553.479 1373.67 552.881V549.793C1373.67 550.397 1374.04 551.002 1374.78 551.486Z" stroke="#151515" stroke-width="2" stroke-linejoin="round"/>
<path d="M1438.78 531.862C1437.04 530.863 1434.23 530.864 1432.5 531.865L1386.94 558.189C1385.35 559.103 1385.22 560.557 1386.62 561.563C1388.26 562.738 1391.31 562.833 1393.15 561.768L1438.78 535.479C1440.51 534.48 1440.51 532.861 1438.78 531.862Z" fill="#87D9FD" stroke="#151515" stroke-width="2" stroke-linejoin="round"/>
<path d="M1438.78 531.862C1437.04 530.863 1434.23 530.864 1432.5 531.865L1386.94 558.189C1385.35 559.103 1385.22 560.557 1386.62 561.563C1388.26 562.738 1391.31 562.833 1393.15 561.768L1438.78 535.479C1440.51 534.48 1440.51 532.861 1438.78 531.862Z" fill="#87D9FD" stroke="#151515" stroke-width="2" stroke-linejoin="round"/>
<path d="M1438.78 535.479L1393.15 561.767V563.107C1393.15 563.876 1393.99 564.358 1394.65 563.973L1438.78 538.549C1439.66 538.043 1440.09 537.378 1440.08 536.716V533.695C1440.07 534.342 1439.63 534.986 1438.78 535.479Z" fill="#151515" stroke="#151515" stroke-width="2" stroke-linejoin="round"/>
<path d="M1393.15 561.769C1391.31 562.834 1388.26 562.739 1386.62 561.564C1385.97 561.101 1385.65 560.542 1385.65 559.984V563.054C1385.65 563.612 1385.97 564.17 1386.62 564.634C1388.26 565.809 1391.31 565.904 1393.15 564.839V561.769Z" fill="#87D9FD" stroke="#151515" stroke-width="2" stroke-linejoin="round"/>
<path d="M1453.39 540.304C1451.66 539.304 1448.84 539.305 1447.11 540.306L1401.55 566.631C1399.97 567.545 1399.83 568.998 1401.24 570.005C1402.87 571.179 1405.92 571.275 1407.77 570.209L1453.39 543.921C1455.12 542.922 1455.12 541.302 1453.39 540.304Z" fill="#87D9FD" stroke="#151515" stroke-width="2" stroke-linejoin="round"/>
<path d="M1453.39 540.304C1451.66 539.304 1448.84 539.305 1447.11 540.306L1401.55 566.631C1399.97 567.545 1399.83 568.998 1401.24 570.005C1402.87 571.179 1405.92 571.275 1407.77 570.209L1453.39 543.921C1455.12 542.922 1455.12 541.302 1453.39 540.304Z" fill="#87D9FD" stroke="#151515" stroke-width="2" stroke-linejoin="round"/>
<path d="M1453.39 543.92L1407.77 570.209V573.279L1453.39 546.99C1454.27 546.485 1454.7 545.82 1454.69 545.157V542.137C1454.68 542.783 1454.25 543.427 1453.39 543.92Z" fill="#151515" stroke="#151515" stroke-width="2" stroke-linejoin="round"/>
<path d="M1407.77 570.21C1405.92 571.276 1402.87 571.18 1401.24 570.006C1400.59 569.542 1400.27 568.983 1400.27 568.426V571.496C1400.27 572.053 1400.59 572.612 1401.24 573.076C1402.87 574.25 1405.92 574.346 1407.77 573.28V570.21Z" fill="#87D9FD" stroke="#151515" stroke-width="2" stroke-linejoin="round"/>
<path d="M1470.31 548.745C1468.57 547.745 1465.76 547.747 1464.03 548.748L1418.47 575.072C1416.88 575.986 1416.75 577.44 1418.15 578.446C1419.79 579.621 1422.83 579.716 1424.68 578.651L1470.31 552.362C1472.04 551.363 1472.04 549.744 1470.31 548.745Z" fill="#87D9FD" stroke="#151515" stroke-width="2" stroke-linejoin="round"/>
<path d="M1470.31 548.745C1468.57 547.745 1465.76 547.747 1464.03 548.748L1418.47 575.072C1416.88 575.986 1416.75 577.44 1418.15 578.446C1419.79 579.621 1422.83 579.716 1424.68 578.651L1470.31 552.362C1472.04 551.363 1472.04 549.744 1470.31 548.745Z" fill="#87D9FD" stroke="#151515" stroke-width="2" stroke-linejoin="round"/>
<path d="M1470.31 552.362L1424.68 578.65V581.72L1470.31 555.432C1471.18 554.926 1471.62 554.261 1471.61 553.599V550.578C1471.6 551.224 1471.16 551.869 1470.31 552.362Z" fill="#151515" stroke="#151515" stroke-width="2" stroke-linejoin="round"/>
<path d="M1424.68 578.652C1422.83 579.717 1419.79 579.622 1418.15 578.447C1417.5 577.983 1417.18 577.424 1417.18 576.867V579.937C1417.18 580.494 1417.5 581.053 1418.15 581.517C1419.79 582.692 1422.83 582.787 1424.68 581.722V578.652Z" fill="#87D9FD" stroke="#151515" stroke-width="2" stroke-linejoin="round"/>
<path d="M281.063 494.526L135.334 410.66L-160 579.905L-14.2706 663.771L281.063 494.526Z" fill="#151515" fill-opacity="0.2"/>
<path d="M135.34 365.884L281.069 449.75L291.355 443.866L145.625 360L135.34 365.884Z" fill="#303030" stroke="#151515" stroke-width="2" stroke-linecap="round" stroke-linejoin="round"/>
<path d="M146.239 369.115C147.441 369.809 149.389 369.809 150.591 369.115C151.193 368.767 151.492 368.423 151.492 368.085V365.666C151.475 365.226 151.171 364.789 150.588 364.453C149.387 363.761 147.44 363.761 146.24 364.453C145.657 364.789 145.357 365.226 145.34 365.666V368.085C145.34 368.423 145.637 368.767 146.239 369.115Z" fill="#151515"/>
<mask id="mask3_1005_53" style="mask-type:alpha" maskUnits="userSpaceOnUse" x="145" y="363" width="7" height="7">
<path d="M146.239 369.117C147.441 369.811 149.389 369.811 150.591 369.117C151.193 368.769 151.492 368.425 151.492 368.087V365.682C151.475 365.242 151.171 364.804 150.588 364.468C149.387 363.776 147.44 363.776 146.24 364.468C145.657 364.804 145.357 365.242 145.34 365.682V368.087C145.34 368.425 145.637 368.769 146.239 369.117Z" fill="#9E00FF"/>
</mask>
<g mask="url(#mask3_1005_53)">
<rect x="147.332" y="361.984" width="6.58529" height="9.64218" fill="#717171"/>
<path d="M146.196 369.028C147.398 369.723 149.346 369.723 150.548 369.028C151.15 368.681 151.449 368.337 151.449 367.999V365.666C151.432 365.226 151.128 364.789 150.545 364.453C149.344 363.761 147.397 363.761 146.197 364.453C145.614 364.789 145.314 365.226 145.297 365.666V367.999C145.297 368.337 145.594 368.681 146.196 369.028Z" stroke="#151515" stroke-width="2" stroke-linejoin="bevel"/>
</g>
<path d="M150.591 366.976C149.39 367.668 147.442 367.668 146.241 366.976C145.04 366.283 145.04 365.161 146.241 364.468C147.442 363.776 149.39 363.776 150.591 364.468C151.792 365.161 151.792 366.283 150.591 366.976Z" fill="#505050" stroke="#151515" stroke-width="2"/>
<path d="M153.16 373.033C154.362 373.727 156.311 373.727 157.513 373.033C158.115 372.685 158.414 372.341 158.414 372.003V369.584C158.397 369.144 158.092 368.707 157.51 368.371C156.309 367.679 154.362 367.679 153.161 368.371C152.579 368.707 152.279 369.144 152.262 369.584V372.003C152.262 372.341 152.559 372.685 153.16 373.033Z" fill="#151515"/>
<mask id="mask4_1005_53" style="mask-type:alpha" maskUnits="userSpaceOnUse" x="152" y="367" width="7" height="7">
<path d="M153.16 373.035C154.362 373.729 156.311 373.729 157.513 373.035C158.115 372.687 158.414 372.343 158.414 372.005V369.6C158.397 369.16 158.092 368.722 157.51 368.386C156.309 367.694 154.362 367.694 153.161 368.386C152.579 368.722 152.279 369.16 152.262 369.6V372.005C152.262 372.343 152.559 372.687 153.16 373.035Z" fill="#9E00FF"/>
</mask>
<g mask="url(#mask4_1005_53)">
<rect x="154.254" y="365.902" width="6.58529" height="9.64218" fill="#717171"/>
<path d="M153.117 372.946C154.319 373.641 156.268 373.641 157.47 372.946C158.072 372.599 158.371 372.255 158.371 371.917V369.584C158.354 369.144 158.049 368.707 157.467 368.371C156.266 367.679 154.319 367.679 153.119 368.371C152.536 368.707 152.236 369.144 152.219 369.584V371.917C152.219 372.255 152.516 372.599 153.117 372.946Z" stroke="#151515" stroke-width="2" stroke-linejoin="bevel"/>
</g>
<path d="M157.513 370.894C156.312 371.586 154.364 371.586 153.163 370.894C151.961 370.201 151.961 369.079 153.163 368.386C154.364 367.694 156.312 367.694 157.513 368.386C158.714 369.079 158.714 370.201 157.513 370.894Z" fill="#505050" stroke="#151515" stroke-width="2"/>
<path d="M160.08 376.873C161.282 377.567 163.231 377.567 164.433 376.873C165.035 376.525 165.334 376.181 165.334 375.843V373.424C165.317 372.984 165.012 372.547 164.429 372.211C163.229 371.518 161.282 371.518 160.081 372.211C159.498 372.547 159.199 372.984 159.182 373.424V375.843C159.182 376.181 159.479 376.525 160.08 376.873Z" fill="#151515"/>
<mask id="mask5_1005_53" style="mask-type:alpha" maskUnits="userSpaceOnUse" x="159" y="371" width="7" height="7">
<path d="M160.08 376.875C161.282 377.569 163.231 377.569 164.433 376.875C165.035 376.527 165.334 376.183 165.334 375.845V373.44C165.317 373 165.012 372.562 164.429 372.226C163.229 371.534 161.282 371.534 160.081 372.226C159.498 372.562 159.199 373 159.182 373.44V375.845C159.182 376.183 159.479 376.527 160.08 376.875Z" fill="#9E00FF"/>
</mask>
<g mask="url(#mask5_1005_53)">
<rect x="161.176" y="369.742" width="6.58529" height="9.64218" fill="#717171"/>
<path d="M160.035 376.786C161.237 377.481 163.186 377.481 164.388 376.786C164.99 376.438 165.289 376.094 165.289 375.757V373.424C165.272 372.984 164.967 372.547 164.385 372.211C163.184 371.518 161.237 371.518 160.036 372.211C159.454 372.547 159.154 372.984 159.137 373.424V375.757C159.137 376.094 159.434 376.438 160.035 376.786Z" stroke="#151515" stroke-width="2" stroke-linejoin="bevel"/>
</g>
<path d="M164.433 374.733C163.231 375.426 161.284 375.426 160.083 374.733C158.881 374.041 158.881 372.919 160.083 372.226C161.284 371.534 163.231 371.534 164.433 372.226C165.634 372.919 165.634 374.041 164.433 374.733Z" fill="#505050" stroke="#151515" stroke-width="2"/>
<path d="M135.34 365.883L281.069 449.748V471.333L135.34 387.468V365.883Z" fill="#151515" stroke="#151515" stroke-width="2" stroke-linecap="round" stroke-linejoin="round"/>
<path d="M281.07 471.336V449.751L291.356 443.867V465.452L281.07 471.336Z" fill="#505050" stroke="#151515" stroke-width="2" stroke-linecap="round" stroke-linejoin="round"/>
<path d="M94.4863 389.181L240.216 473.046L281.358 449.51L135.628 365.645L94.4863 389.181Z" fill="#59B5F8" stroke="#151515" stroke-width="2" stroke-linecap="round" stroke-linejoin="round"/>
<path d="M94.4863 389.18L240.216 473.045V494.63L94.4863 410.764V389.18Z" fill="#151515" stroke="#151515" stroke-width="2" stroke-linecap="round" stroke-linejoin="round"/>
<path d="M240.217 494.629V473.044L281.358 449.508V471.093L240.217 494.629Z" fill="#59B5F8" stroke="#151515" stroke-width="2" stroke-linecap="round" stroke-linejoin="round"/>
<path d="M133.441 380.41L177.774 404.586L164.201 411.877L119.867 387.701L133.441 380.41Z" fill="#59B5F8" stroke="#151515" stroke-width="2" stroke-linejoin="round"/>
<path d="M133.437 377.34L177.77 401.516L164.197 408.807L119.863 384.631L133.437 377.34Z" fill="#59B5F8" stroke="#151515" stroke-width="2" stroke-linejoin="round"/>
<path d="M119.863 384.629L164.197 408.805V411.875L119.863 387.699V384.629Z" fill="#151515" stroke="#151515" stroke-width="2" stroke-linejoin="round"/>
<path d="M164.197 408.807L177.771 401.516V404.586L164.197 411.877V408.807Z" fill="#59B5F8" stroke="#151515" stroke-width="2" stroke-linejoin="round"/>
<path d="M189.9 419.576C191.636 418.576 194.452 418.579 196.181 419.584L206.661 425.674C208.325 426.641 208.366 428.192 206.756 429.188C205.057 430.238 202.186 430.267 200.425 429.252L189.9 423.188C188.169 422.19 188.169 420.573 189.9 419.576Z" fill="#151515" stroke="#151515" stroke-width="2"/>
<path d="M189.9 416.506C191.636 415.505 194.452 415.509 196.181 416.513L206.661 422.604C208.325 423.571 208.366 425.122 206.756 426.118C205.057 427.168 202.186 427.197 200.425 426.182L189.9 420.117C188.169 419.12 188.169 417.503 189.9 416.506Z" fill="#59B5F8" stroke="#151515" stroke-width="2"/>
<path d="M189.9 420.118L200.425 426.182V429.252L189.9 423.188C189.03 422.687 188.597 422.029 188.602 421.373L188.604 418.402C188.601 418.341 188.601 418.28 188.604 418.219L188.604 418.402C188.642 419.026 189.074 419.642 189.9 420.118Z" fill="#151515"/>
<path d="M200.425 426.182L189.9 420.118C188.993 419.595 188.561 418.903 188.604 418.219L188.602 421.373C188.597 422.029 189.03 422.687 189.9 423.188L200.425 429.252V426.182Z" stroke="#151515" stroke-width="2" stroke-linejoin="round"/>
<path d="M200.426 426.183C202.187 427.198 205.058 427.169 206.757 426.119C207.532 425.639 207.925 425.031 207.937 424.422V424.359C207.938 424.38 207.938 424.401 207.937 424.422V427.491C207.925 428.101 207.532 428.709 206.757 429.189C205.058 430.239 202.187 430.268 200.426 429.253V426.183Z" fill="#59B5F8"/>
<path d="M206.757 426.119C205.058 427.169 202.187 427.198 200.426 426.183V429.253C202.187 430.268 205.058 430.239 206.757 429.189C207.532 428.709 207.925 428.101 207.937 427.491V424.359C207.951 424.99 207.558 425.623 206.757 426.119Z" stroke="#151515" stroke-width="2" stroke-linejoin="round"/>
<path d="M212.2 432.623C213.936 431.623 216.753 431.626 218.482 432.631L228.962 438.721C230.626 439.688 230.667 441.239 229.056 442.235C227.358 443.285 224.487 443.314 222.726 442.299L212.2 436.235C210.47 435.237 210.47 433.62 212.2 432.623Z" fill="#151515" stroke="#151515" stroke-width="2"/>
<path d="M212.2 429.553C213.936 428.552 216.753 428.556 218.482 429.56L228.962 435.651C230.626 436.617 230.667 438.169 229.056 439.165C227.358 440.215 224.487 440.244 222.726 439.229L212.2 433.164C210.47 432.167 210.47 430.55 212.2 429.553Z" fill="#59B5F8" stroke="#151515" stroke-width="2"/>
<path d="M212.2 433.165L222.726 439.229V442.299L212.2 436.235C211.331 435.734 210.898 435.076 210.902 434.42L210.905 431.449C210.901 431.388 210.901 431.327 210.905 431.266L210.905 431.449C210.943 432.072 211.375 432.689 212.2 433.165Z" fill="#151515"/>
<path d="M222.726 439.229L212.2 433.165C211.294 432.642 210.862 431.95 210.905 431.266L210.902 434.42C210.898 435.076 211.331 435.734 212.2 436.235L222.726 442.299V439.229Z" stroke="#151515" stroke-width="2" stroke-linejoin="round"/>
<path d="M222.727 439.23C224.488 440.245 227.359 440.216 229.057 439.166C229.833 438.686 230.225 438.078 230.238 437.468V437.406C230.239 437.427 230.239 437.448 230.238 437.468V440.538C230.225 441.148 229.833 441.756 229.057 442.236C227.359 443.286 224.488 443.315 222.727 442.3V439.23Z" fill="#59B5F8"/>
<path d="M229.057 439.166C227.359 440.216 224.488 440.245 222.727 439.23V442.3C224.488 443.315 227.359 443.286 229.057 442.236C229.833 441.756 230.225 441.148 230.238 440.538V437.406C230.252 438.037 229.859 438.67 229.057 439.166Z" stroke="#151515" stroke-width="2" stroke-linejoin="round"/>
<path d="M234.505 445.67C236.241 444.67 239.058 444.673 240.786 445.678L251.267 451.768C252.93 452.735 252.972 454.286 251.361 455.282C249.663 456.332 246.792 456.361 245.03 455.346L234.505 449.281C232.774 448.284 232.774 446.667 234.505 445.67Z" fill="#151515" stroke="#151515" stroke-width="2"/>
<path d="M234.505 442.6C236.241 441.599 239.058 441.603 240.786 442.607L251.267 448.698C252.93 449.664 252.972 451.216 251.361 452.212C249.663 453.262 246.792 453.291 245.03 452.276L234.505 446.211C232.774 445.214 232.774 443.597 234.505 442.6Z" fill="#59B5F8" stroke="#151515" stroke-width="2"/>
<path d="M234.505 446.211L245.03 452.276V455.346L234.505 449.281C233.636 448.78 233.203 448.123 233.207 447.466L233.21 444.496C233.206 444.435 233.206 444.374 233.21 444.312L233.21 444.496C233.248 445.119 233.68 445.736 234.505 446.211Z" fill="#151515"/>
<path d="M245.03 452.276L234.505 446.211C233.599 445.689 233.167 444.997 233.21 444.312L233.207 447.466C233.203 448.123 233.636 448.78 234.505 449.281L245.03 455.346V452.276Z" stroke="#151515" stroke-width="2" stroke-linejoin="round"/>
<path d="M245.031 452.277C246.793 453.292 249.664 453.263 251.362 452.213C252.138 451.733 252.53 451.125 252.543 450.515V450.453C252.543 450.474 252.543 450.495 252.543 450.515V453.585C252.53 454.195 252.138 454.803 251.362 455.283C249.664 456.333 246.793 456.362 245.031 455.347V452.277Z" fill="#59B5F8"/>
<path d="M251.362 452.213C249.664 453.263 246.793 453.292 245.031 452.277V455.347C246.793 456.362 249.664 456.333 251.362 455.283C252.138 454.803 252.53 454.195 252.543 453.585V450.453C252.556 451.084 252.164 451.717 251.362 452.213Z" stroke="#151515" stroke-width="2" stroke-linejoin="round"/>
<path d="M5.13867 440.221L150.868 524.086L240.266 472.944L94.537 389.078L5.13867 440.221Z" fill="#8E44EC" stroke="#151515" stroke-width="2" stroke-linecap="round" stroke-linejoin="round"/>
<path d="M150.869 545.673V524.088L240.267 472.945L240.267 494.53L150.869 545.673Z" fill="#B382F2" stroke="#151515" stroke-width="2" stroke-linecap="round" stroke-linejoin="round"/>
<path d="M5.13867 440.219L150.868 524.084V545.669L5.13867 461.803V440.219Z" fill="#151515" stroke="#151515" stroke-width="2" stroke-linecap="round" stroke-linejoin="round"/>
<path d="M154.037 438.199L207.773 468.899L143.851 505.738L90.1152 475.038L154.037 438.199Z" fill="#B382F2" stroke="#151515" stroke-width="2" stroke-linejoin="round"/>
<path d="M154.037 435.129L207.773 465.828L143.851 502.667L90.1152 471.968L154.037 435.129Z" fill="#B382F2" stroke="#151515" stroke-width="2" stroke-linejoin="round"/>
<path d="M143.852 502.667L207.773 465.828V468.898L143.852 505.737V502.667Z" fill="#B382F2" stroke="#151515" stroke-width="2" stroke-linejoin="round"/>
<path d="M90.1152 471.969L143.851 502.668V505.738L90.1152 475.039V471.969Z" fill="#151515" stroke="#151515" stroke-width="2" stroke-linejoin="round"/>
<path d="M46.3977 429.754L90.7313 453.93L77.1579 461.221L32.8242 437.045L46.3977 429.754Z" fill="#151515" stroke="#151515" stroke-width="2" stroke-linejoin="round"/>
<path d="M46.3977 426.684L90.7313 450.859L77.1579 458.15L32.8242 433.975L46.3977 426.684Z" fill="#B382F2" stroke="#151515" stroke-width="2" stroke-linejoin="round"/>
<path d="M77.1582 458.15L90.7317 450.859V453.929L77.1582 461.22V458.15Z" fill="#B382F2" stroke="#151515" stroke-width="2" stroke-linejoin="round"/>
<path d="M32.8242 433.973L77.1579 458.148V461.218L32.8242 437.043V433.973Z" fill="#151515" stroke="#151515" stroke-width="2" stroke-linejoin="round"/>
<path d="M78.6005 414.624C80.3356 413.624 83.1497 413.626 84.8816 414.627L117.132 433.279C118.746 434.212 118.848 435.703 117.367 436.707C115.704 437.834 112.726 437.903 110.91 436.857L78.6005 418.24C76.8676 417.241 76.8676 415.622 78.6005 414.624Z" fill="#151515" stroke="#151515" stroke-width="2" stroke-linejoin="round"/>
<path d="M78.6005 411.554C80.3356 410.554 83.1497 410.555 84.8816 411.557L117.132 430.208C118.746 431.142 118.848 432.632 117.367 433.636C115.704 434.763 112.726 434.833 110.91 433.787L78.6005 415.169C76.8676 414.171 76.8676 412.552 78.6005 411.554Z" fill="#B382F2" stroke="#151515" stroke-width="2" stroke-linejoin="round"/>
<path d="M78.6004 415.17L110.91 433.788V436.858L78.6004 418.24C77.7721 417.763 77.3397 417.144 77.3032 416.519L77.3008 413.375C77.3062 414.025 77.7395 414.674 78.6004 415.17Z" fill="#151515" stroke="#151515" stroke-width="2" stroke-linejoin="round"/>
<path d="M110.91 433.785C112.726 434.831 115.704 434.762 117.367 433.635C118.043 433.177 118.389 432.617 118.412 432.055V435.125C118.389 435.687 118.043 436.246 117.367 436.705C115.704 437.832 112.726 437.901 110.91 436.855V433.785Z" fill="#B382F2" stroke="#151515" stroke-width="2" stroke-linejoin="round"/>
<path d="M63.9911 423.069C65.7263 422.069 68.5403 422.071 70.2723 423.073L102.522 441.724C104.136 442.657 104.239 444.148 102.757 445.152C101.095 446.279 98.1163 446.348 96.301 445.302L63.9911 426.685C62.2582 425.687 62.2582 424.068 63.9911 423.069Z" fill="#151515" stroke="#151515" stroke-width="2" stroke-linejoin="round"/>
<path d="M63.9911 419.999C65.7263 418.999 68.5403 419.001 70.2723 420.002L102.522 438.654C104.136 439.587 104.239 441.078 102.757 442.082C101.095 443.209 98.1163 443.278 96.301 442.232L63.9911 423.615C62.2582 422.616 62.2582 420.997 63.9911 419.999Z" fill="#B382F2" stroke="#151515" stroke-width="2" stroke-linejoin="round"/>
<path d="M63.991 423.616L96.3009 442.233V445.303L63.991 426.686C63.1627 426.208 62.7303 425.589 62.6939 424.964L62.6914 421.82C62.6969 422.471 63.1301 423.12 63.991 423.616Z" fill="#151515" stroke="#151515" stroke-width="2" stroke-linejoin="round"/>
<path d="M96.3008 442.231C98.1161 443.277 101.094 443.207 102.757 442.08C103.434 441.622 103.78 441.062 103.803 440.5V443.57C103.78 444.132 103.434 444.692 102.757 445.15C101.094 446.277 98.1161 446.347 96.3008 445.301V442.231Z" fill="#B382F2" stroke="#151515" stroke-width="2" stroke-linejoin="round"/>
<path d="M93.2098 406.182C94.945 405.183 97.7591 405.184 99.491 406.186L131.741 424.837C133.355 425.771 133.457 427.261 131.976 428.265C130.313 429.392 127.335 429.462 125.52 428.416L93.2098 409.798C91.4769 408.8 91.4769 407.181 93.2098 406.182Z" fill="#151515" stroke="#151515" stroke-width="2" stroke-linejoin="round"/>
<path d="M93.2098 403.112C94.945 402.112 97.7591 402.114 99.491 403.116L131.741 421.767C133.355 422.7 133.457 424.191 131.976 425.195C130.313 426.322 127.335 426.391 125.52 425.345L93.2098 406.728C91.4769 405.73 91.4769 404.111 93.2098 403.112Z" fill="#B382F2" stroke="#151515" stroke-width="2" stroke-linejoin="round"/>
<path d="M93.2098 406.729L125.52 425.346V428.416L93.2098 409.799C92.3814 409.322 91.949 408.703 91.9126 408.077L91.9102 404.934C91.9156 405.584 92.3488 406.233 93.2098 406.729Z" fill="#151515" stroke="#151515" stroke-width="2" stroke-linejoin="round"/>
<path d="M125.52 425.344C127.335 426.39 130.313 426.321 131.976 425.194C132.652 424.735 132.999 424.175 133.021 423.613V426.683C132.999 427.245 132.652 427.805 131.976 428.263C130.313 429.391 127.335 429.46 125.52 428.414V425.344Z" fill="#B382F2" stroke="#151515" stroke-width="2" stroke-linejoin="round"/>
<path d="M-106.145 504.012L39.5849 587.877V609.462L-106.145 525.596V504.012Z" fill="#151515" stroke="#151515" stroke-width="2" stroke-linecap="round" stroke-linejoin="round"/>
<path d="M151.401 523.928L5.67153 440.062L-106.076 503.991L39.653 587.856L151.401 523.928Z" fill="#F97289" stroke="#151515" stroke-width="2" stroke-linecap="round" stroke-linejoin="round"/>
<path d="M151.401 545.51L151.4 523.926L39.6526 587.854L39.6523 609.439L151.401 545.51Z" fill="#F7A1B0" stroke="#151515" stroke-width="2" stroke-linecap="round" stroke-linejoin="round"/>
<path d="M60.9765 486.016L7.24033 455.316L-80.6522 505.97L-26.916 536.67L60.9765 486.016Z" fill="#F7A1B0" stroke="#151515" stroke-width="2" stroke-linejoin="round"/>
<path d="M60.9765 482.945L7.24033 452.246L-80.6522 502.9L-26.916 533.599L60.9765 482.945Z" fill="#F7A1B0" stroke="#151515" stroke-width="2" stroke-linejoin="round"/>
<path d="M-26.9141 533.599L60.9784 482.945V486.015L-26.9141 536.669V533.599Z" fill="#F7A1B0" stroke="#151515" stroke-width="2" stroke-linejoin="round"/>
<path d="M69.3637 495.503C71.0991 494.503 73.9139 494.505 75.6448 495.507L97.0223 507.889C98.662 508.838 98.7352 510.359 97.1896 511.36C95.5084 512.448 92.5844 512.497 90.7964 511.467L69.3637 499.117C67.6314 498.119 67.6314 496.501 69.3637 495.503Z" fill="#151515" stroke="#151515" stroke-width="2"/>
<path d="M69.3637 492.432C71.0991 491.432 73.9139 491.434 75.6448 492.437L97.0223 504.818C98.662 505.768 98.7352 507.289 97.1896 508.29C95.5084 509.378 92.5844 509.427 90.7964 508.397L69.3637 496.047C67.6314 495.049 67.6314 493.43 69.3637 492.432Z" fill="#F7A1B0" stroke="#151515" stroke-width="2"/>
<path d="M69.3652 496.048L90.7979 508.398V511.468L69.3652 499.118C68.4678 498.601 68.0357 497.918 68.0681 497.24V494.32C68.1017 494.948 68.534 495.569 69.3652 496.048Z" fill="#151515" stroke="#151515" stroke-width="2" stroke-linejoin="round"/>
<path d="M90.7969 508.394C92.5849 509.424 95.5089 509.375 97.1901 508.287C97.9299 507.808 98.2989 507.21 98.3026 506.612V506.594C98.3026 506.6 98.3026 506.606 98.3026 506.612V509.682C98.2989 510.28 97.9299 510.878 97.1901 511.357C95.5089 512.445 92.5849 512.494 90.7969 511.464V508.394Z" fill="#F7A1B0"/>
<path d="M97.1901 508.287C95.5089 509.375 92.5849 509.424 90.7969 508.394V511.464C92.5849 512.494 95.5089 512.445 97.1901 511.357C97.9299 510.878 98.2989 510.28 98.3026 509.682V506.594C98.3064 507.198 97.9375 507.803 97.1901 508.287Z" stroke="#151515" stroke-width="2" stroke-linejoin="round"/>
<path d="M54.7551 500.874C56.4901 499.874 59.3036 499.875 61.0363 500.877L106.597 527.201C108.179 528.115 108.314 529.569 106.911 530.575C105.273 531.75 102.228 531.845 100.379 530.779L54.7551 504.491C53.0218 503.492 53.0217 501.873 54.7551 500.874Z" fill="#F7A1B0" stroke="#151515" stroke-width="2" stroke-linejoin="round"/>
<path d="M54.7551 500.874C56.4901 499.874 59.3036 499.875 61.0363 500.877L106.597 527.201C108.179 528.115 108.314 529.569 106.911 530.575C105.273 531.75 102.228 531.845 100.379 530.779L54.7551 504.491C53.0218 503.492 53.0217 501.873 54.7551 500.874Z" fill="#F7A1B0" stroke="#151515" stroke-width="2" stroke-linejoin="round"/>
<path d="M54.7551 504.491L100.379 530.779V532.119C100.379 532.888 99.5459 533.369 98.8793 532.985L54.7551 507.561C53.8775 507.055 53.4443 506.39 53.4553 505.727V502.707C53.4661 503.353 53.8994 503.998 54.7551 504.491Z" fill="#151515" stroke="#151515" stroke-width="2" stroke-linejoin="round"/>
<path d="M100.379 530.781C102.228 531.846 105.273 531.751 106.911 530.576C107.558 530.112 107.878 529.553 107.88 528.996V532.066C107.878 532.623 107.558 533.182 106.911 533.646C105.273 534.821 102.228 534.916 100.379 533.851V530.781Z" fill="#F7A1B0" stroke="#151515" stroke-width="2" stroke-linejoin="round"/>
<path d="M40.1437 509.315C41.8787 508.316 44.6923 508.317 46.4249 509.318L91.9857 535.643C93.5676 536.557 93.7029 538.01 92.2998 539.016C90.6617 540.191 87.6165 540.286 85.7672 539.221L40.1437 512.932C38.4104 511.934 38.4104 510.314 40.1437 509.315Z" fill="#F7A1B0" stroke="#151515" stroke-width="2" stroke-linejoin="round"/>
<path d="M40.1437 509.315C41.8787 508.316 44.6923 508.317 46.4249 509.318L91.9857 535.643C93.5676 536.557 93.7029 538.01 92.2998 539.016C90.6617 540.191 87.6165 540.286 85.7672 539.221L40.1437 512.932C38.4104 511.934 38.4104 510.314 40.1437 509.315Z" fill="#F7A1B0" stroke="#151515" stroke-width="2" stroke-linejoin="round"/>
<path d="M40.1437 512.932L85.7672 539.221V542.29L40.1437 516.002C39.2662 515.496 38.8329 514.832 38.844 514.169V511.148C38.8548 511.795 39.288 512.439 40.1437 512.932Z" fill="#151515" stroke="#151515" stroke-width="2" stroke-linejoin="round"/>
<path d="M85.7676 539.222C87.6168 540.288 90.6621 540.192 92.3001 539.017C92.947 538.554 93.2669 537.995 93.2689 537.438V540.507C93.2669 541.065 92.947 541.624 92.3001 542.087C90.6621 543.262 87.6168 543.357 85.7676 542.292V539.222Z" fill="#F7A1B0" stroke="#151515" stroke-width="2" stroke-linejoin="round"/>
<path d="M23.2258 517.757C24.9608 516.757 27.7743 516.758 29.507 517.759L75.0677 544.084C76.6497 544.998 76.785 546.451 75.3818 547.458C73.7438 548.632 70.6985 548.728 68.8492 547.662L23.2258 521.374C21.4925 520.375 21.4924 518.756 23.2258 517.757Z" fill="#F7A1B0" stroke="#151515" stroke-width="2" stroke-linejoin="round"/>
<path d="M23.2258 517.757C24.9608 516.757 27.7743 516.758 29.507 517.759L75.0677 544.084C76.6497 544.998 76.785 546.451 75.3818 547.458C73.7438 548.632 70.6985 548.728 68.8492 547.662L23.2258 521.374C21.4925 520.375 21.4924 518.756 23.2258 517.757Z" fill="#F7A1B0" stroke="#151515" stroke-width="2" stroke-linejoin="round"/>
<path d="M23.2258 521.373L68.8492 547.662V550.732L23.2258 524.443C22.3482 523.938 21.915 523.273 21.926 522.61V519.59C21.9368 520.236 22.3701 520.88 23.2258 521.373Z" fill="#151515" stroke="#151515" stroke-width="2" stroke-linejoin="round"/>
<path d="M68.8496 547.663C70.6989 548.729 73.7441 548.634 75.3822 547.459C76.029 546.995 76.3489 546.436 76.351 545.879V548.949C76.349 549.506 76.029 550.065 75.3822 550.529C73.7441 551.704 70.6989 551.799 68.8496 550.733V547.663Z" fill="#F7A1B0" stroke="#151515" stroke-width="2" stroke-linejoin="round"/>
<path d="M-160 534.959L-14.2706 618.825L39.5598 588.03L-106.17 504.164L-160 534.959Z" fill="#ED6B22" stroke="#151515" stroke-width="2" stroke-linecap="round" stroke-linejoin="round"/>
<path d="M-14.2695 640.407V618.822L39.5607 588.027V609.612L-14.2695 640.407Z" fill="#F39A68" stroke="#151515" stroke-width="2" stroke-linecap="round" stroke-linejoin="round"/>
<path d="M-20.0402 604.214L-53.1074 585.111L-20.0402 565.84L13.0271 584.943L-20.0402 604.214Z" fill="#F39A68" stroke="#151515" stroke-width="2" stroke-linejoin="round"/>
<path d="M-20.0402 601.144L-53.1074 582.041L-20.0402 562.77L13.0271 581.873L-20.0402 601.144Z" fill="#F39A68" stroke="#151515" stroke-width="2" stroke-linejoin="round"/>
<path d="M-20.041 601.142L13.0262 581.871V584.941L-20.041 604.212V601.142Z" fill="#F39A68" stroke="#151515" stroke-width="2" stroke-linejoin="round"/>
</g>
<defs>
<clipPath id="clip0_1005_53">
<rect width="1440" height="656" fill="white"/>
</clipPath>
</defs>
</svg>
