<svg width="456" height="95" viewBox="0 0 456 95" fill="none" xmlns="http://www.w3.org/2000/svg">
<g clip-path="url(#clip0_2377_981)">
<path fill-rule="evenodd" clip-rule="evenodd" d="M102.621 51.382C102.645 47.3549 101.38 45.0981 98.1836 43.5272L78.6312 33.9231C77.8585 33.5425 77.0675 33.2071 76.2676 32.9171L76.1408 19.8902C76.0532 16.0595 74.882 13.6215 71.6851 12.0505L52.1328 2.44649C45.3165 -0.90389 37.3138 -0.807216 30.579 2.70026L5.4541 15.7876C2.67082 17.2377 1.23391 19.9265 1.17051 22.6575L0.00226351 42.3761C-0.0460362 44.2371 0.675441 46.231 2.47461 47.2944L23.3944 59.6416C24.6351 60.3757 25.9272 60.986 27.2524 61.4754L26.6154 73.9313C26.5369 75.9041 27.1679 77.7107 28.97 78.7711L49.8899 91.1182C57.2616 95.4686 66.3963 95.5411 73.8345 91.3056L100.478 76.1337C102.316 75.0884 102.923 73.2606 102.92 71.2697L102.615 51.382H102.621ZM26.6305 34.8446C22.193 32.8265 10.1029 26.4973 9.17318 25.9868C7.09025 24.8357 6.99365 23.6152 7.10233 22.147C7.15063 21.4733 7.36798 20.8116 7.74834 20.2316C8.1287 19.6485 8.67207 19.15 9.37845 18.7966C10.3777 18.2981 33.3019 6.81195 33.3019 6.81195C37.7998 4.57333 43.0162 4.28331 47.7043 5.94188C48.3745 6.17752 49.0326 6.45546 49.6786 6.77268C53.944 8.86629 62.478 13.0535 66.7404 15.1562C66.7495 15.1622 66.7706 15.1713 66.7827 15.1773C68.5517 16.0625 69.2883 17.8903 68.9834 19.5519C68.7751 20.6999 68.1743 21.7029 66.8612 22.4128C66.5291 22.5941 48.2024 32.322 44.5527 34.2524C38.9862 37.201 32.3782 37.4548 26.6335 34.8415L26.6305 34.8446ZM95.4064 51.5874C95.2283 52.814 94.5309 53.9801 93.2963 54.7021L70.5139 68.0402C64.8296 71.3664 57.8261 71.4873 52.0302 68.3604L35.3124 59.3335C32.2786 57.696 32.2605 53.3457 35.2822 51.6811L57.9016 39.2342C63.1572 36.343 69.4724 36.1225 74.9152 38.6451L92.928 46.9893C94.4675 47.7023 95.3128 49.1101 95.4366 50.5753C95.4637 50.9137 95.4547 51.2551 95.4064 51.5904V51.5874Z" fill="url(#paint0_linear_2377_981)"/>
</g>
<path d="M159.738 74.231V18.2017H173.425V74.231H159.738ZM124.92 74.231V18.2017H138.607V74.231H124.92ZM130.363 52.4596V40.1332H166.942V52.4596H130.363Z" fill="white"/>
<path d="M209.546 74.231V48.1373C209.546 45.9495 208.932 44.3487 207.705 43.3348C206.531 42.2676 204.877 41.734 202.743 41.734C200.661 41.734 198.794 42.1342 197.14 42.9346C195.539 43.6817 193.991 44.9357 192.497 46.6966L184.813 39.2527C187.375 36.638 190.309 34.5836 193.618 33.0895C196.926 31.5954 200.528 30.8483 204.423 30.8483C207.999 30.8483 211.094 31.3819 213.708 32.4491C216.323 33.5164 218.351 35.1439 219.792 37.3317C221.232 39.5195 221.953 42.2943 221.953 45.656V74.231H209.546ZM198.5 75.0314C195.832 75.0314 193.404 74.4978 191.217 73.4306C189.082 72.3634 187.375 70.8959 186.094 69.0283C184.867 67.1073 184.253 64.8661 184.253 62.3048C184.253 60.117 184.653 58.1959 185.454 56.5417C186.254 54.8876 187.428 53.5268 188.975 52.4596C190.576 51.339 192.551 50.5119 194.898 49.9783C197.3 49.3913 200.075 49.0979 203.223 49.0979H216.11L215.389 57.1821H203.543C202.422 57.1821 201.435 57.2888 200.581 57.5023C199.728 57.6623 199.007 57.9558 198.42 58.3827C197.833 58.7562 197.38 59.2098 197.06 59.7434C196.793 60.277 196.659 60.9174 196.659 61.6644C196.659 62.4649 196.873 63.1585 197.3 63.7455C197.727 64.3325 198.287 64.7861 198.981 65.1062C199.728 65.4264 200.581 65.5865 201.542 65.5865C202.929 65.5865 204.237 65.373 205.464 64.9462C206.745 64.4659 207.865 63.7989 208.826 62.9451C209.84 62.0913 210.64 61.1041 211.227 59.9836L213.468 65.7466C212.348 67.5608 210.987 69.1617 209.386 70.5491C207.839 71.9365 206.131 73.0304 204.263 73.8308C202.449 74.6312 200.528 75.0314 198.5 75.0314Z" fill="white"/>
<path d="M251.681 75.0314C247.572 75.0314 243.863 74.0709 240.555 72.1499C237.3 70.2289 234.738 67.6142 232.871 64.3058C231.003 60.9441 230.069 57.1821 230.069 53.0199C230.069 48.751 231.003 44.9624 232.871 41.654C234.738 38.2922 237.3 35.6508 240.555 33.7298C243.863 31.8088 247.572 30.8483 251.681 30.8483C255.469 30.8483 258.938 31.542 262.086 32.9294C265.288 34.2634 267.796 36.1044 269.61 38.4523L262.646 46.9367C261.953 46.0296 261.099 45.2025 260.085 44.4554C259.071 43.7084 257.951 43.1214 256.723 42.6945C255.496 42.2676 254.215 42.0542 252.881 42.0542C250.854 42.0542 249.066 42.5344 247.519 43.4949C245.971 44.4021 244.77 45.6827 243.917 47.3369C243.063 48.9911 242.636 50.8588 242.636 52.9399C242.636 54.9676 243.063 56.8086 243.917 58.4628C244.824 60.0636 246.051 61.3443 247.599 62.3048C249.146 63.2653 250.88 63.7455 252.801 63.7455C254.189 63.7455 255.469 63.5588 256.643 63.1852C257.817 62.8117 258.884 62.2781 259.845 61.5844C260.859 60.8907 261.793 60.0636 262.646 59.1031L269.61 67.5875C267.796 69.8287 265.261 71.643 262.006 73.0304C258.751 74.3644 255.309 75.0314 251.681 75.0314Z" fill="white"/>
<path d="M289.774 61.7445L285.212 51.9794L304.982 31.7288H321.871L289.774 61.7445ZM277.448 74.231V15H290.335V74.231H277.448ZM306.183 74.231L291.375 55.021L300.5 47.9773L321.471 74.231H306.183Z" fill="white"/>
<path d="M329.712 74.231V18.2017H341.958L362.289 51.259L353.644 51.1789L374.215 18.2017H386.061V74.231H372.774V57.2621C372.774 52.3529 372.881 47.9506 373.094 44.0552C373.361 40.1065 373.788 36.2378 374.375 32.4491L375.896 36.6113L360.448 60.5438H355.005L339.877 36.7714L341.398 32.4491C342.038 36.0243 342.465 39.733 342.678 43.575C342.945 47.3636 343.079 51.926 343.079 57.2621V74.231H329.712Z" fill="white"/>
<path d="M400.783 74.231V18.2017H424.395C428.504 18.2017 432.266 18.8954 435.681 20.2828C439.096 21.6168 442.031 23.5378 444.486 26.0458C446.941 28.5004 448.835 31.4619 450.169 34.9304C451.503 38.3456 452.17 42.1075 452.17 46.2163C452.17 50.3785 451.503 54.1672 450.169 57.5823C448.835 60.9974 446.941 63.959 444.486 66.4669C442.031 68.9216 439.096 70.8426 435.681 72.23C432.32 73.564 428.558 74.231 424.395 74.231H400.783ZM414.47 64.7861L412.709 62.1447H423.995C426.183 62.1447 428.157 61.7712 429.918 61.0241C431.679 60.277 433.173 59.2098 434.401 57.8224C435.681 56.3817 436.642 54.7008 437.282 52.7798C437.976 50.8054 438.323 48.6176 438.323 46.2163C438.323 43.8151 437.976 41.654 437.282 39.7329C436.642 37.7586 435.681 36.0777 434.401 34.6903C433.173 33.2496 431.679 32.1556 429.918 31.4086C428.157 30.6615 426.183 30.288 423.995 30.288H412.469L414.47 27.8067V64.7861Z" fill="white"/>
<defs>
<linearGradient id="paint0_linear_2377_981" x1="22.6839" y1="8.07219" x2="73.6555" y2="90.4328" gradientUnits="userSpaceOnUse">
<stop stop-color="#9894F9"/>
<stop offset="1" stop-color="#453AFF"/>
</linearGradient>
<clipPath id="clip0_2377_981">
<rect width="102.92" height="95" fill="white"/>
</clipPath>
</defs>
</svg>
